<?xml version="1.0" standalone="no"?><!-- Generator: Gravit.io --><svg xmlns="http://www.w3.org/2000/svg" xmlns:xlink="http://www.w3.org/1999/xlink" style="isolation:isolate" viewBox="0 0 200 86.576" width="200" height="86.576"><defs><clipPath id="_clipPath_aG8tPlnjeUArpSH2lXjpm8OH7dahcT9Y"><rect width="200" height="86.576"/></clipPath></defs><g clip-path="url(#_clipPath_aG8tPlnjeUArpSH2lXjpm8OH7dahcT9Y)"><clipPath id="_clipPath_YiJMaoQ59JSGP4LswgLFis4OndgDOEdd"><rect x="0" y="0" width="200" height="86.576" transform="matrix(1,0,0,1,0,0)" fill="rgb(255,255,255)"/></clipPath><g clip-path="url(#_clipPath_YiJMaoQ59JSGP4LswgLFis4OndgDOEdd)"><g id="Group"><g id="_2450656431536"><path d=" M 46.497 0.876 C 45.373 2.76 43.556 4.346 41.078 5.667 C 38.582 6.973 36.203 7.634 33.906 7.634 C 31.642 7.634 28.47 6.973 24.355 5.651 C 20.291 4.329 17.663 3.668 16.457 3.668 C 14.243 3.668 12.327 4.528 10.724 6.23 C 9.121 7.948 8.328 10.013 8.328 12.442 C 8.328 14.788 9.055 16.722 10.525 18.226 C 11.996 19.729 13.83 20.902 16.011 21.761 C 18.176 22.604 21.58 23.678 26.206 24.967 C 30.816 26.223 34.534 27.462 37.343 28.669 C 40.136 29.891 42.515 31.692 44.465 34.104 C 46.414 36.517 47.389 39.673 47.389 43.589 C 47.389 49.438 44.993 54.643 40.202 59.187 C 35.41 63.748 29.478 66.028 22.406 66.028 C 15.962 66.028 10.608 64.342 6.361 60.955 C 2.115 57.568 0 53.536 0 48.86 C 0 45.423 1.239 42.548 3.734 40.235 C 6.213 37.938 9.435 36.781 13.368 36.781 C 17.515 36.781 21.002 37.921 23.86 40.202 C 26.718 42.466 28.156 45.175 28.156 48.298 C 28.156 50.43 27.429 52.181 25.958 53.552 C 24.488 54.924 22.72 55.618 20.638 55.618 C 17.217 55.618 14.673 54.032 12.987 50.843 L 14.194 50.165 C 15.433 51.421 16.788 52.049 18.275 52.049 C 19.861 52.049 21.167 51.504 22.224 50.397 C 23.265 49.289 23.794 47.918 23.794 46.249 C 23.794 44.167 22.918 42.432 21.15 41.044 C 19.398 39.656 17.267 38.962 14.788 38.962 C 11.881 38.962 9.468 40.02 7.535 42.135 C 5.618 44.234 4.66 46.761 4.66 49.703 C 4.66 53.569 6.378 56.891 9.815 59.683 C 13.252 62.459 17.581 63.847 22.819 63.847 C 28.404 63.847 33.047 62.095 36.764 58.576 C 40.483 55.073 42.333 50.958 42.333 46.233 C 42.333 42.994 41.474 40.384 39.756 38.368 C 38.021 36.368 35.972 34.864 33.559 33.857 C 31.163 32.849 27.809 31.758 23.513 30.569 C 19.2 29.395 15.846 28.288 13.45 27.297 C 11.038 26.289 9.022 24.835 7.402 22.935 C 5.767 21.018 4.957 18.539 4.957 15.466 C 4.957 11.269 6.626 7.65 9.947 4.627 C 13.269 1.603 17.118 0.099 21.514 0.099 C 23.546 0.099 26.454 0.628 30.238 1.702 C 34.038 2.743 36.781 3.272 38.467 3.272 C 41.209 3.272 43.589 2.181 45.621 0 L 46.497 0.876 L 46.497 0.876 Z  M 89.441 57.171 C 85.559 62.938 81.857 65.83 78.321 65.83 C 77.132 65.83 76.239 65.433 75.611 64.64 C 74.983 63.847 74.669 62.128 74.669 59.468 L 74.669 55.387 C 71.15 60.509 68.688 63.599 67.25 64.656 C 65.83 65.697 64.474 66.226 63.202 66.226 C 61.864 66.226 60.839 65.78 60.096 64.871 C 59.369 63.979 59.005 61.88 59.005 58.592 L 59.005 50.661 C 57.617 53.768 56.196 56.213 54.759 58.014 L 53.156 56.907 C 56.031 52.776 57.981 48.612 59.005 44.415 L 63.863 41.937 L 63.863 59.468 C 63.863 60.724 63.929 61.567 64.078 61.996 C 64.226 62.442 64.623 62.657 65.284 62.657 C 65.995 62.657 66.936 62.112 68.093 61.005 C 69.25 59.914 70.638 58.146 72.257 55.734 C 73.86 53.305 74.669 51.983 74.669 51.752 L 74.669 44.415 L 79.527 41.937 L 79.527 57.089 C 79.527 59.088 79.593 60.443 79.742 61.17 C 79.891 61.897 80.304 62.261 80.965 62.261 C 82.535 62.261 84.881 60.145 87.987 55.915 L 89.441 57.171 L 89.441 57.171 Z  M 94.117 26.173 C 94.117 24.207 94.696 22.654 95.852 21.53 C 97.009 20.39 98.497 19.828 100.33 19.828 C 104.263 19.828 107.766 21.844 110.839 25.876 C 113.896 29.924 115.433 35.08 115.433 41.375 C 115.433 48.282 113.781 54.081 110.476 58.791 C 107.155 63.483 103.387 65.83 99.14 65.83 C 96.761 65.83 94.845 65.086 93.358 63.615 C 91.887 62.145 91.143 60.377 91.143 58.311 L 91.143 56.609 C 91.143 55.717 91.176 55.122 91.242 54.825 L 88.913 58.014 L 87.277 56.907 C 93.638 47.059 99.62 42.135 105.238 42.135 C 108.245 42.135 110.559 43.391 112.161 45.919 C 112.359 44.498 112.459 43.126 112.459 41.837 C 112.459 37.508 111.12 33.576 108.46 30.023 C 105.8 26.471 102.71 24.686 99.174 24.686 C 97.373 24.686 95.687 25.182 94.117 26.173 L 94.117 26.173 Z  M 101.719 62.261 C 104.164 62.261 106.361 61.021 108.344 58.559 C 110.311 56.097 111.302 53.387 111.302 50.463 C 111.302 48.529 110.74 46.993 109.633 45.886 C 108.526 44.778 107.039 44.217 105.188 44.217 C 102.71 44.217 100.529 45.357 98.645 47.654 C 96.745 49.934 95.803 52.462 95.803 55.205 C 95.803 57.287 96.348 58.989 97.439 60.295 C 98.529 61.6 99.95 62.261 101.719 62.261 L 101.719 62.261 Z  M 119.398 57.171 C 115.846 62.789 111.137 65.945 105.271 66.623 L 104.825 65.516 C 110.096 64.309 114.425 61.154 117.845 56.015 L 119.398 57.171 L 119.398 57.171 Z  M 117.102 56.808 C 121.298 50.843 124.736 46.993 127.429 45.241 C 130.106 43.507 132.915 42.631 135.856 42.631 C 138.665 42.631 140.862 43.374 142.465 44.861 C 144.068 46.332 144.861 48.398 144.861 51.041 C 144.861 54.809 143.341 58.245 140.301 61.368 C 137.277 64.475 133.724 66.028 129.693 66.028 C 127.082 66.028 124.984 65.251 123.414 63.682 C 121.844 62.128 121.067 60.145 121.067 57.733 C 121.067 56.444 121.167 55.271 121.365 54.246 C 120.869 54.792 119.993 56.048 118.704 58.014 L 117.102 56.808 L 117.102 56.808 Z  M 132.848 62.855 C 135.311 62.855 137.261 61.963 138.715 60.195 C 140.168 58.427 140.896 56.064 140.896 53.14 C 140.896 50.595 140.218 48.595 138.863 47.158 C 137.508 45.72 135.707 45.01 133.476 45.01 C 131.13 45.01 129.247 45.869 127.842 47.571 C 126.437 49.289 125.727 51.669 125.727 54.726 C 125.727 60.145 128.106 62.855 132.848 62.855 L 132.848 62.855 Z  M 150.314 57.072 C 147.736 60.757 145.291 63.186 143.01 64.376 C 140.714 65.549 138.417 66.259 136.137 66.524 L 135.74 65.417 C 141.061 64.21 145.39 61.054 148.711 55.915 L 150.314 57.072 L 150.314 57.072 Z  M 174.108 57.188 C 170.456 62.954 166.804 65.83 163.12 65.83 C 159.336 65.83 157.452 63.682 157.452 59.385 C 157.452 55.899 159.121 52.099 162.442 47.984 C 161.847 48.117 160.823 48.182 159.319 48.182 C 158.361 48.182 157.336 47.984 156.262 47.604 C 154.627 51.19 152.446 54.693 149.736 58.113 L 148.232 56.907 C 151.305 52.511 153.982 47.522 156.262 41.937 C 159.336 43.391 161.765 44.118 163.532 44.118 C 165.202 44.118 166.639 43.457 167.862 42.135 L 168.655 42.713 C 166.689 45.159 165.102 47.637 163.913 50.149 C 162.707 52.644 162.112 55.387 162.112 58.394 C 162.112 59.319 162.426 60.212 163.037 61.021 C 163.648 61.848 164.326 62.261 165.069 62.261 C 166.308 62.261 167.482 61.765 168.622 60.757 C 169.762 59.766 171.1 58.179 172.653 56.015 L 174.108 57.188 Z  M 200 57.171 C 198.099 60.278 196.018 62.525 193.754 63.93 C 191.49 65.334 188.516 66.028 184.831 66.028 C 182.155 66.028 180.023 65.235 178.453 63.632 C 176.884 62.029 176.107 59.782 176.107 56.891 C 176.107 56.114 176.173 55.287 176.305 54.412 C 175.132 55.915 174.257 57.122 173.645 58.014 L 172.042 56.907 C 176.239 50.975 179.478 47.076 181.725 45.208 C 183.989 43.358 186.319 42.432 188.698 42.432 C 190.036 42.432 191.127 42.813 191.97 43.589 C 192.829 44.366 193.258 45.373 193.258 46.596 C 193.258 50.793 189.557 54.924 182.155 58.989 C 183.162 61.302 185.244 62.459 188.417 62.459 C 189.937 62.459 191.623 61.914 193.473 60.807 C 195.34 59.716 197.026 58.113 198.546 56.015 L 200 57.171 L 200 57.171 Z  M 181.246 57.105 C 186.616 54.494 189.293 51.587 189.293 48.398 C 189.293 47.439 189.028 46.646 188.5 46.035 C 187.954 45.423 187.244 45.109 186.335 45.109 C 184.683 45.109 183.295 45.869 182.171 47.389 C 181.031 48.893 180.469 50.727 180.469 52.842 C 180.469 54.015 180.601 54.99 180.849 55.8 C 181.114 56.576 181.246 57.006 181.246 57.105 Z " fill="rgb(103,199,194)"/><g id="Group"><path d=" M 20.561 80.887 L 22.031 80.207 C 22.171 80.712 22.428 81.098 22.8 81.362 C 23.17 81.63 23.646 81.762 24.225 81.762 C 24.775 81.762 25.209 81.608 25.534 81.304 C 25.856 81 26.018 80.593 26.018 80.083 C 26.018 79.417 25.465 78.822 24.357 78.301 C 24.201 78.224 24.082 78.166 24.001 78.132 C 22.75 77.521 21.917 76.971 21.502 76.477 C 21.087 75.982 20.878 75.38 20.878 74.668 C 20.878 73.743 21.193 72.995 21.819 72.421 C 22.446 71.847 23.271 71.562 24.289 71.562 C 25.124 71.562 25.825 71.723 26.388 72.046 C 26.951 72.368 27.34 72.831 27.556 73.434 L 26.118 74.179 C 25.891 73.822 25.642 73.561 25.37 73.397 C 25.098 73.23 24.786 73.148 24.434 73.148 C 23.94 73.148 23.543 73.278 23.253 73.537 C 22.959 73.793 22.813 74.14 22.813 74.573 C 22.813 75.255 23.456 75.892 24.738 76.479 C 24.836 76.527 24.913 76.564 24.971 76.588 C 26.092 77.106 26.861 77.611 27.279 78.103 C 27.697 78.597 27.905 79.213 27.905 79.951 C 27.905 81.024 27.567 81.878 26.89 82.51 C 26.213 83.142 25.299 83.459 24.146 83.459 C 23.181 83.459 22.39 83.237 21.772 82.793 C 21.156 82.348 20.751 81.714 20.561 80.887 L 20.561 80.887 Z  M 32.313 78.7 L 35.474 78.7 L 34.311 76.114 C 34.245 75.951 34.174 75.761 34.103 75.546 C 34.031 75.332 33.957 75.094 33.885 74.83 C 33.825 75.078 33.758 75.308 33.687 75.523 C 33.618 75.737 33.547 75.935 33.475 76.114 L 32.313 78.7 Z  M 37.41 83.157 L 36.125 80.239 L 31.63 80.239 L 30.314 83.157 L 28.379 83.157 L 33.87 71.372 L 39.355 83.157 L 37.41 83.157 L 37.41 83.157 Z  M 40.096 71.816 L 41.92 71.816 L 41.92 78.703 C 41.92 79.723 42.155 80.493 42.629 81.006 C 43.102 81.521 43.807 81.777 44.749 81.777 C 45.682 81.777 46.385 81.521 46.858 81.006 C 47.332 80.493 47.567 79.723 47.567 78.703 L 47.567 71.816 L 49.407 71.816 L 49.407 78.872 C 49.407 80.405 49.021 81.555 48.246 82.317 C 47.472 83.078 46.303 83.459 44.743 83.459 C 43.184 83.459 42.02 83.078 41.251 82.32 C 40.482 81.561 40.096 80.411 40.096 78.872 L 40.096 71.816 L 40.096 71.816 Z  M 51.948 83.157 L 51.948 71.372 L 59.154 78.301 C 59.35 78.497 59.549 78.706 59.752 78.928 C 59.953 79.15 60.165 79.401 60.387 79.679 L 60.387 71.816 L 62.084 71.816 L 62.084 83.602 L 54.737 76.543 C 54.541 76.35 54.351 76.149 54.169 75.938 C 53.983 75.726 53.812 75.504 53.645 75.271 L 53.645 83.157 L 51.948 83.157 L 51.948 83.157 Z  M 67.083 78.7 L 70.245 78.7 L 69.082 76.114 C 69.016 75.951 68.945 75.761 68.873 75.546 C 68.802 75.332 68.728 75.094 68.657 74.83 C 68.596 75.078 68.529 75.308 68.458 75.523 C 68.389 75.737 68.318 75.935 68.247 76.114 L 67.083 78.7 Z  M 72.181 83.157 L 70.896 80.239 L 66.401 80.239 L 65.085 83.157 L 63.149 83.157 L 68.641 71.372 L 74.126 83.157 L 72.181 83.157 L 72.181 83.157 Z " fill="rgb(249,168,111)"/><path d=" M 120.761 83.134 L 120.761 71.792 L 127.09 71.792 L 127.09 73.363 L 122.601 73.363 L 122.601 76.203 L 127.09 76.203 L 127.09 77.821 L 122.601 77.821 L 122.601 81.485 L 127.09 81.485 L 127.09 83.134 L 120.761 83.134 Z  M 127.901 83.134 L 131.581 77.199 L 128.33 71.792 L 130.265 71.792 L 131.899 74.566 C 131.986 74.711 132.15 75.01 132.385 75.465 L 132.501 75.69 C 132.586 75.528 132.676 75.359 132.776 75.179 C 132.877 74.997 132.993 74.798 133.123 74.582 L 134.849 71.792 L 136.737 71.792 L 133.424 77.17 L 136.99 83.134 L 134.955 83.134 L 133.06 79.919 L 133.028 79.864 C 132.822 79.478 132.631 79.113 132.457 78.772 C 132.37 78.949 132.271 79.129 132.168 79.32 C 132.065 79.507 131.954 79.7 131.835 79.896 L 129.852 83.134 L 127.901 83.134 L 127.901 83.134 Z  M 140.113 76.536 L 140.586 76.536 C 141.609 76.536 142.292 76.424 142.633 76.203 C 142.973 75.98 143.143 75.589 143.143 75.026 C 143.143 74.423 142.96 73.997 142.595 73.749 C 142.233 73.503 141.562 73.379 140.586 73.379 L 140.113 73.379 L 140.113 76.536 Z  M 140.002 78.042 L 140.002 83.134 L 138.273 83.134 L 138.273 71.792 L 141.059 71.792 C 141.887 71.792 142.495 71.838 142.886 71.927 C 143.275 72.017 143.616 72.168 143.907 72.374 C 144.263 72.636 144.541 72.993 144.745 73.437 C 144.946 73.884 145.046 74.376 145.046 74.912 C 145.046 75.452 144.946 75.946 144.745 76.4 C 144.541 76.856 144.263 77.212 143.907 77.469 C 143.616 77.675 143.275 77.823 142.886 77.91 C 142.495 77.998 141.887 78.042 141.059 78.042 L 140.697 78.042 L 140.002 78.042 L 140.002 78.042 Z  M 148.554 76.631 L 148.89 76.631 C 149.866 76.631 150.513 76.517 150.834 76.289 C 151.153 76.062 151.314 75.66 151.314 75.081 C 151.314 74.457 151.143 74.019 150.799 73.762 C 150.455 73.506 149.818 73.379 148.89 73.379 L 148.554 73.379 L 148.554 76.631 L 148.554 76.631 Z  M 148.443 78.059 L 148.443 83.134 L 146.714 83.134 L 146.714 71.792 L 149.284 71.792 C 150.037 71.792 150.622 71.843 151.04 71.941 C 151.455 72.038 151.809 72.2 152.103 72.427 C 152.454 72.702 152.724 73.056 152.916 73.49 C 153.107 73.923 153.202 74.397 153.202 74.915 C 153.202 75.822 152.983 76.533 152.544 77.048 C 152.105 77.561 151.457 77.871 150.601 77.974 L 154.503 83.134 L 152.425 83.134 L 148.649 78.059 L 148.443 78.059 L 148.443 78.059 Z  M 155.598 83.134 L 155.598 71.792 L 161.927 71.792 L 161.927 73.363 L 157.438 73.363 L 157.438 76.203 L 161.927 76.203 L 161.927 77.821 L 157.438 77.821 L 157.438 81.485 L 161.927 81.485 L 161.927 83.134 L 155.598 83.134 Z  M 163.389 80.863 L 164.859 80.184 C 164.999 80.689 165.255 81.075 165.628 81.339 C 165.998 81.606 166.474 81.738 167.053 81.738 C 167.603 81.738 168.036 81.585 168.362 81.281 C 168.684 80.977 168.845 80.57 168.845 80.06 C 168.845 79.394 168.293 78.799 167.185 78.278 C 167.029 78.201 166.91 78.143 166.828 78.109 C 165.578 77.498 164.745 76.948 164.33 76.454 C 163.915 75.959 163.706 75.357 163.706 74.645 C 163.706 73.72 164.021 72.972 164.647 72.398 C 165.274 71.824 166.099 71.539 167.116 71.539 C 167.952 71.539 168.653 71.7 169.216 72.022 C 169.779 72.345 170.167 72.808 170.384 73.41 L 168.946 74.156 C 168.719 73.799 168.47 73.537 168.198 73.374 C 167.925 73.207 167.614 73.125 167.262 73.125 C 166.767 73.125 166.371 73.255 166.08 73.514 C 165.786 73.77 165.641 74.116 165.641 74.55 C 165.641 75.232 166.284 75.87 167.566 76.456 C 167.664 76.504 167.741 76.541 167.799 76.565 C 168.919 77.083 169.689 77.588 170.107 78.079 C 170.524 78.574 170.733 79.19 170.733 79.927 C 170.733 81.001 170.395 81.855 169.718 82.487 C 169.041 83.118 168.126 83.436 166.974 83.436 C 166.009 83.436 165.218 83.213 164.6 82.77 C 163.984 82.325 163.579 81.691 163.389 80.863 L 163.389 80.863 Z  M 172.095 80.863 L 173.565 80.184 C 173.705 80.689 173.961 81.075 174.334 81.339 C 174.704 81.606 175.18 81.738 175.759 81.738 C 176.309 81.738 176.743 81.585 177.068 81.281 C 177.39 80.977 177.552 80.57 177.552 80.06 C 177.552 79.394 176.999 78.799 175.891 78.278 C 175.735 78.201 175.616 78.143 175.534 78.109 C 174.284 77.498 173.451 76.948 173.036 76.454 C 172.621 75.959 172.412 75.357 172.412 74.645 C 172.412 73.72 172.726 72.972 173.353 72.398 C 173.979 71.824 174.804 71.539 175.822 71.539 C 176.658 71.539 177.358 71.7 177.921 72.022 C 178.484 72.345 178.873 72.808 179.09 73.41 L 177.652 74.156 C 177.425 73.799 177.176 73.537 176.904 73.374 C 176.631 73.207 176.319 73.125 175.968 73.125 C 175.474 73.125 175.077 73.255 174.786 73.514 C 174.493 73.77 174.347 74.116 174.347 74.55 C 174.347 75.232 174.99 75.87 176.272 76.456 C 176.37 76.504 176.446 76.541 176.505 76.565 C 177.625 77.083 178.395 77.588 178.813 78.079 C 179.23 78.574 179.439 79.19 179.439 79.927 C 179.439 81.001 179.101 81.855 178.424 82.487 C 177.747 83.118 176.832 83.436 175.68 83.436 C 174.715 83.436 173.924 83.213 173.305 82.77 C 172.69 82.325 172.285 81.691 172.095 80.863 L 172.095 80.863 Z " fill="rgb(249,168,111)"/><path d=" M 93.367 76.339 C 93.367 74.529 94.836 73.06 96.646 73.06 C 98.455 73.06 99.925 74.529 99.925 76.339 C 99.925 78.148 98.455 79.617 96.646 79.617 C 94.836 79.617 93.367 78.148 93.367 76.339 Z " fill="rgb(103,199,194)" vector-effect="non-scaling-stroke" stroke-width="0.667" stroke="rgb(103,199,194)" stroke-opacity="100" stroke-linejoin="miter" stroke-linecap="butt" stroke-miterlimit="22.9256"/></g></g></g></g></g></svg>