<?xml version="1.0" standalone="no"?><!-- Generator: Gravit.io --><svg xmlns="http://www.w3.org/2000/svg" xmlns:xlink="http://www.w3.org/1999/xlink" style="isolation:isolate" viewBox="0 0 200 66.623" width="200" height="66.623"><defs><clipPath id="_clipPath_gACZp0T4PBkWRm1sgfB1kDIVbEMXmuhT"><rect width="200" height="66.623"/></clipPath></defs><g clip-path="url(#_clipPath_gACZp0T4PBkWRm1sgfB1kDIVbEMXmuhT)"><clipPath id="_clipPath_BSNgHqVbdwM2JEiZCmLnDCxkxjjY0sUp"><rect x="0" y="0" width="200" height="66.623" transform="matrix(1,0,0,1,0,0)" fill="rgb(255,255,255)"/></clipPath><g clip-path="url(#_clipPath_BSNgHqVbdwM2JEiZCmLnDCxkxjjY0sUp)"><g id="Group"><path d=" M 46.497 0.876 C 45.373 2.76 43.556 4.346 41.078 5.667 C 38.582 6.973 36.203 7.634 33.906 7.634 C 31.642 7.634 28.47 6.973 24.355 5.651 C 20.291 4.329 17.663 3.668 16.457 3.668 C 14.243 3.668 12.327 4.528 10.724 6.23 C 9.121 7.948 8.328 10.013 8.328 12.442 C 8.328 14.788 9.055 16.722 10.525 18.226 C 11.996 19.729 13.83 20.902 16.011 21.761 C 18.176 22.604 21.58 23.678 26.206 24.967 C 30.816 26.223 34.534 27.462 37.343 28.669 C 40.136 29.891 42.515 31.692 44.465 34.104 C 46.414 36.517 47.389 39.673 47.389 43.589 C 47.389 49.438 44.993 54.643 40.202 59.187 C 35.41 63.748 29.478 66.028 22.406 66.028 C 15.962 66.028 10.608 64.342 6.361 60.955 C 2.115 57.568 0 53.536 0 48.86 C 0 45.423 1.239 42.548 3.734 40.235 C 6.213 37.938 9.435 36.781 13.368 36.781 C 17.515 36.781 21.002 37.921 23.86 40.202 C 26.718 42.466 28.156 45.175 28.156 48.298 C 28.156 50.43 27.429 52.181 25.958 53.552 C 24.488 54.924 22.72 55.618 20.638 55.618 C 17.217 55.618 14.673 54.032 12.987 50.843 L 14.194 50.165 C 15.433 51.421 16.788 52.049 18.275 52.049 C 19.861 52.049 21.167 51.504 22.224 50.397 C 23.265 49.289 23.794 47.918 23.794 46.249 C 23.794 44.167 22.918 42.432 21.15 41.044 C 19.398 39.656 17.267 38.962 14.788 38.962 C 11.881 38.962 9.468 40.02 7.535 42.135 C 5.618 44.234 4.66 46.761 4.66 49.703 C 4.66 53.569 6.378 56.891 9.815 59.683 C 13.252 62.459 17.581 63.847 22.819 63.847 C 28.404 63.847 33.047 62.095 36.764 58.576 C 40.483 55.073 42.333 50.958 42.333 46.233 C 42.333 42.994 41.474 40.384 39.756 38.368 C 38.021 36.368 35.972 34.864 33.559 33.857 C 31.163 32.849 27.809 31.758 23.513 30.569 C 19.2 29.395 15.846 28.288 13.45 27.297 C 11.038 26.289 9.022 24.835 7.402 22.935 C 5.767 21.018 4.957 18.539 4.957 15.466 C 4.957 11.269 6.626 7.65 9.947 4.627 C 13.269 1.603 17.118 0.099 21.514 0.099 C 23.546 0.099 26.454 0.628 30.238 1.702 C 34.038 2.743 36.781 3.272 38.467 3.272 C 41.209 3.272 43.589 2.181 45.621 0 L 46.497 0.876 L 46.497 0.876 Z  M 89.441 57.171 C 85.559 62.938 81.857 65.83 78.321 65.83 C 77.132 65.83 76.239 65.433 75.611 64.64 C 74.983 63.847 74.669 62.128 74.669 59.468 L 74.669 55.387 C 71.15 60.509 68.688 63.599 67.25 64.656 C 65.83 65.697 64.474 66.226 63.202 66.226 C 61.864 66.226 60.839 65.78 60.096 64.871 C 59.369 63.979 59.005 61.88 59.005 58.592 L 59.005 50.661 C 57.617 53.768 56.196 56.213 54.759 58.014 L 53.156 56.907 C 56.031 52.776 57.981 48.612 59.005 44.415 L 63.863 41.937 L 63.863 59.468 C 63.863 60.724 63.929 61.567 64.078 61.996 C 64.226 62.442 64.623 62.657 65.284 62.657 C 65.995 62.657 66.936 62.112 68.093 61.005 C 69.25 59.914 70.638 58.146 72.257 55.734 C 73.86 53.305 74.669 51.983 74.669 51.752 L 74.669 44.415 L 79.527 41.937 L 79.527 57.089 C 79.527 59.088 79.593 60.443 79.742 61.17 C 79.891 61.897 80.304 62.261 80.965 62.261 C 82.535 62.261 84.881 60.145 87.987 55.915 L 89.441 57.171 L 89.441 57.171 Z  M 94.117 26.173 C 94.117 24.207 94.696 22.654 95.852 21.53 C 97.009 20.39 98.497 19.828 100.33 19.828 C 104.263 19.828 107.766 21.844 110.839 25.876 C 113.896 29.924 115.433 35.08 115.433 41.375 C 115.433 48.282 113.781 54.081 110.476 58.791 C 107.155 63.483 103.387 65.83 99.14 65.83 C 96.761 65.83 94.845 65.086 93.358 63.615 C 91.887 62.145 91.143 60.377 91.143 58.311 L 91.143 56.609 C 91.143 55.717 91.176 55.122 91.242 54.825 L 88.913 58.014 L 87.277 56.907 C 93.638 47.059 99.62 42.135 105.238 42.135 C 108.245 42.135 110.559 43.391 112.161 45.919 C 112.359 44.498 112.459 43.126 112.459 41.837 C 112.459 37.508 111.12 33.576 108.46 30.023 C 105.8 26.471 102.71 24.686 99.174 24.686 C 97.373 24.686 95.687 25.182 94.117 26.173 L 94.117 26.173 Z  M 101.719 62.261 C 104.164 62.261 106.361 61.021 108.344 58.559 C 110.311 56.097 111.302 53.387 111.302 50.463 C 111.302 48.529 110.74 46.993 109.633 45.886 C 108.526 44.778 107.039 44.217 105.188 44.217 C 102.71 44.217 100.529 45.357 98.645 47.654 C 96.745 49.934 95.803 52.462 95.803 55.205 C 95.803 57.287 96.348 58.989 97.439 60.295 C 98.529 61.6 99.95 62.261 101.719 62.261 L 101.719 62.261 Z  M 119.398 57.171 C 115.846 62.789 111.137 65.945 105.271 66.623 L 104.825 65.516 C 110.096 64.309 114.425 61.154 117.845 56.015 L 119.398 57.171 L 119.398 57.171 Z  M 117.102 56.808 C 121.298 50.843 124.736 46.993 127.429 45.241 C 130.106 43.507 132.915 42.631 135.856 42.631 C 138.665 42.631 140.862 43.374 142.465 44.861 C 144.068 46.332 144.861 48.398 144.861 51.041 C 144.861 54.809 143.341 58.245 140.301 61.368 C 137.277 64.475 133.724 66.028 129.693 66.028 C 127.082 66.028 124.984 65.251 123.414 63.682 C 121.844 62.128 121.067 60.145 121.067 57.733 C 121.067 56.444 121.167 55.271 121.365 54.246 C 120.869 54.792 119.993 56.048 118.704 58.014 L 117.102 56.808 L 117.102 56.808 Z  M 132.848 62.855 C 135.311 62.855 137.261 61.963 138.715 60.195 C 140.168 58.427 140.896 56.064 140.896 53.14 C 140.896 50.595 140.218 48.595 138.863 47.158 C 137.508 45.72 135.707 45.01 133.476 45.01 C 131.13 45.01 129.247 45.869 127.842 47.571 C 126.437 49.289 125.727 51.669 125.727 54.726 C 125.727 60.145 128.106 62.855 132.848 62.855 L 132.848 62.855 Z  M 150.314 57.072 C 147.736 60.757 145.291 63.186 143.01 64.376 C 140.714 65.549 138.417 66.259 136.137 66.524 L 135.74 65.417 C 141.061 64.21 145.39 61.054 148.711 55.915 L 150.314 57.072 L 150.314 57.072 Z  M 174.108 57.188 C 170.456 62.954 166.804 65.83 163.12 65.83 C 159.336 65.83 157.452 63.682 157.452 59.385 C 157.452 55.899 159.121 52.099 162.442 47.984 C 161.847 48.117 160.823 48.182 159.319 48.182 C 158.361 48.182 157.336 47.984 156.262 47.604 C 154.627 51.19 152.446 54.693 149.736 58.113 L 148.232 56.907 C 151.305 52.511 153.982 47.522 156.262 41.937 C 159.336 43.391 161.765 44.118 163.532 44.118 C 165.202 44.118 166.639 43.457 167.862 42.135 L 168.655 42.713 C 166.689 45.159 165.102 47.637 163.913 50.149 C 162.707 52.644 162.112 55.387 162.112 58.394 C 162.112 59.319 162.426 60.212 163.037 61.021 C 163.648 61.848 164.326 62.261 165.069 62.261 C 166.308 62.261 167.482 61.765 168.622 60.757 C 169.762 59.766 171.1 58.179 172.653 56.015 L 174.108 57.188 Z  M 200 57.171 C 198.1 60.278 196.018 62.525 193.754 63.93 C 191.49 65.334 188.516 66.028 184.831 66.028 C 182.155 66.028 180.023 65.235 178.453 63.632 C 176.884 62.029 176.107 59.782 176.107 56.891 C 176.107 56.114 176.173 55.287 176.305 54.412 C 175.132 55.915 174.257 57.122 173.645 58.014 L 172.042 56.907 C 176.239 50.975 179.478 47.076 181.725 45.208 C 183.989 43.358 186.319 42.432 188.698 42.432 C 190.036 42.432 191.127 42.813 191.97 43.589 C 192.829 44.366 193.258 45.373 193.258 46.596 C 193.258 50.793 189.557 54.924 182.155 58.989 C 183.162 61.302 185.244 62.459 188.417 62.459 C 189.937 62.459 191.623 61.914 193.473 60.807 C 195.34 59.716 197.026 58.113 198.546 56.015 L 200 57.171 L 200 57.171 Z  M 181.246 57.105 C 186.616 54.494 189.293 51.587 189.293 48.398 C 189.293 47.439 189.028 46.646 188.5 46.035 C 187.954 45.423 187.244 45.109 186.335 45.109 C 184.683 45.109 183.295 45.869 182.171 47.389 C 181.031 48.893 180.469 50.727 180.469 52.842 C 180.469 54.015 180.601 54.99 180.849 55.8 C 181.114 56.576 181.246 57.006 181.246 57.105 Z " fill="rgb(103,199,194)"/></g></g></g></svg>