<?xml version="1.0" standalone="no"?><!-- Generator: Gravit.io --><svg xmlns="http://www.w3.org/2000/svg" xmlns:xlink="http://www.w3.org/1999/xlink" style="isolation:isolate" viewBox="0 0 136.364 60" width="136.364" height="60"><defs><clipPath id="_clipPath_GrDEcV5GOzoYKom10WDv3I7R8kOZOvbW"><rect width="136.364" height="60"/></clipPath></defs><g clip-path="url(#_clipPath_GrDEcV5GOzoYKom10WDv3I7R8kOZOvbW)"><clipPath id="_clipPath_xl0NEYGEbTJmSp2phYPqyDTQ0QGZowQL"><rect x="0" y="0" width="136.364" height="60" transform="matrix(1,0,0,1,0,0)" fill="rgb(255,255,255)"/></clipPath><g clip-path="url(#_clipPath_xl0NEYGEbTJmSp2phYPqyDTQ0QGZowQL)"><g id="Group"><g id="Logo"><g id="Sauna Express"><path d=" M 8.746 57.085 L 10.086 56.465 C 10.214 56.926 10.448 57.278 10.788 57.519 C 11.125 57.762 11.559 57.883 12.087 57.883 C 12.589 57.883 12.985 57.742 13.28 57.465 C 13.574 57.189 13.722 56.817 13.722 56.352 C 13.722 55.745 13.218 55.202 12.207 54.727 C 12.065 54.657 11.956 54.604 11.883 54.573 C 10.742 54.016 9.983 53.515 9.603 53.064 C 9.226 52.613 9.035 52.064 9.035 51.415 C 9.035 50.571 9.323 49.889 9.893 49.365 C 10.465 48.842 11.217 48.582 12.145 48.582 C 12.907 48.582 13.546 48.729 14.06 49.023 C 14.573 49.317 14.927 49.739 15.125 50.289 L 13.813 50.969 C 13.606 50.643 13.379 50.405 13.131 50.255 C 12.884 50.103 12.598 50.028 12.278 50.028 C 11.827 50.028 11.465 50.147 11.201 50.383 C 10.933 50.617 10.799 50.933 10.799 51.327 C 10.799 51.95 11.386 52.531 12.555 53.066 C 12.644 53.11 12.715 53.143 12.768 53.165 C 13.79 53.638 14.491 54.098 14.872 54.547 C 15.254 54.997 15.443 55.559 15.443 56.232 C 15.443 57.21 15.134 57.989 14.517 58.565 C 13.9 59.142 13.066 59.431 12.015 59.431 C 11.135 59.431 10.414 59.228 9.85 58.823 C 9.288 58.418 8.92 57.839 8.746 57.085 L 8.746 57.085 Z  M 19.462 55.091 L 22.345 55.091 L 21.284 52.732 C 21.224 52.585 21.16 52.411 21.094 52.215 C 21.029 52.02 20.961 51.803 20.896 51.562 C 20.841 51.788 20.78 51.998 20.715 52.194 C 20.652 52.39 20.588 52.57 20.521 52.732 L 19.462 55.091 Z  M 24.11 59.155 L 22.938 56.494 L 18.839 56.494 L 17.64 59.155 L 15.875 59.155 L 20.882 48.409 L 25.883 59.155 L 24.11 59.155 L 24.11 59.155 Z  M 26.559 48.814 L 28.223 48.814 L 28.223 55.094 C 28.223 56.024 28.437 56.726 28.87 57.194 C 29.3 57.663 29.943 57.897 30.802 57.897 C 31.653 57.897 32.294 57.663 32.725 57.194 C 33.158 56.726 33.372 56.024 33.372 55.094 L 33.372 48.814 L 35.05 48.814 L 35.05 55.248 C 35.05 56.645 34.698 57.694 33.991 58.39 C 33.286 59.083 32.219 59.431 30.796 59.431 C 29.375 59.431 28.314 59.083 27.612 58.392 C 26.911 57.7 26.559 56.651 26.559 55.248 L 26.559 48.814 L 26.559 48.814 Z  M 37.367 59.155 L 37.367 48.409 L 43.938 54.727 C 44.116 54.905 44.297 55.096 44.483 55.299 C 44.667 55.501 44.859 55.73 45.062 55.983 L 45.062 48.814 L 46.609 48.814 L 46.609 59.561 L 39.91 53.125 C 39.732 52.948 39.558 52.765 39.392 52.573 C 39.222 52.379 39.066 52.177 38.914 51.965 L 38.914 59.155 L 37.367 59.155 L 37.367 59.155 Z  M 51.168 55.091 L 54.051 55.091 L 52.991 52.732 C 52.93 52.585 52.865 52.411 52.799 52.215 C 52.735 52.02 52.668 51.803 52.603 51.562 C 52.547 51.788 52.486 51.998 52.421 52.194 C 52.358 52.39 52.294 52.57 52.229 52.732 L 51.168 55.091 Z  M 55.816 59.155 L 54.644 56.494 L 50.546 56.494 L 49.346 59.155 L 47.58 59.155 L 52.588 48.409 L 57.59 59.155 L 55.816 59.155 L 55.816 59.155 Z " fill="rgb(249,168,111)"/><path d=" M 74.111 59.133 L 74.111 48.792 L 79.883 48.792 L 79.883 50.223 L 75.789 50.223 L 75.789 52.814 L 79.883 52.814 L 79.883 54.288 L 75.789 54.288 L 75.789 57.63 L 79.883 57.63 L 79.883 59.133 L 74.111 59.133 Z  M 80.622 59.133 L 83.978 53.722 L 81.013 48.792 L 82.778 48.792 L 84.268 51.32 C 84.347 51.453 84.496 51.726 84.71 52.141 L 84.816 52.346 C 84.894 52.199 84.976 52.044 85.067 51.88 C 85.16 51.714 85.265 51.533 85.384 51.335 L 86.958 48.792 L 88.679 48.792 L 85.658 53.695 L 88.91 59.133 L 87.055 59.133 L 85.327 56.202 L 85.297 56.152 C 85.109 55.799 84.935 55.467 84.777 55.156 C 84.697 55.317 84.607 55.482 84.513 55.656 C 84.419 55.826 84.318 56.003 84.209 56.181 L 82.401 59.133 L 80.622 59.133 L 80.622 59.133 Z  M 91.758 53.117 L 92.189 53.117 C 93.122 53.117 93.745 53.015 94.055 52.814 C 94.366 52.61 94.521 52.253 94.521 51.74 C 94.521 51.191 94.354 50.802 94.021 50.576 C 93.691 50.352 93.079 50.238 92.189 50.238 L 91.758 50.238 L 91.758 53.117 Z  M 91.657 54.491 L 91.657 59.133 L 90.08 59.133 L 90.08 48.792 L 92.62 48.792 C 93.375 48.792 93.93 48.833 94.287 48.915 C 94.641 48.996 94.952 49.135 95.218 49.322 C 95.542 49.561 95.795 49.887 95.982 50.292 C 96.165 50.699 96.256 51.147 96.256 51.637 C 96.256 52.128 96.165 52.579 95.982 52.993 C 95.795 53.41 95.542 53.733 95.218 53.968 C 94.952 54.156 94.641 54.291 94.287 54.37 C 93.93 54.45 93.375 54.491 92.62 54.491 L 92.29 54.491 L 91.657 54.491 L 91.657 54.491 Z  M 99.455 53.204 L 99.762 53.204 C 100.651 53.204 101.241 53.1 101.534 52.892 C 101.825 52.685 101.971 52.319 101.971 51.79 C 101.971 51.221 101.816 50.822 101.502 50.588 C 101.188 50.354 100.607 50.238 99.762 50.238 L 99.455 50.238 L 99.455 53.204 L 99.455 53.204 Z  M 99.353 54.506 L 99.353 59.133 L 97.778 59.133 L 97.778 48.792 L 100.12 48.792 C 100.807 48.792 101.341 48.838 101.722 48.927 C 102.1 49.016 102.423 49.163 102.691 49.37 C 103.01 49.621 103.257 49.944 103.432 50.339 C 103.606 50.735 103.694 51.167 103.694 51.639 C 103.694 52.467 103.493 53.114 103.093 53.584 C 102.693 54.052 102.102 54.335 101.321 54.429 L 104.879 59.133 L 102.985 59.133 L 99.541 54.506 L 99.353 54.506 L 99.353 54.506 Z  M 105.878 59.133 L 105.878 48.792 L 111.648 48.792 L 111.648 50.223 L 107.555 50.223 L 107.555 52.814 L 111.648 52.814 L 111.648 54.288 L 107.555 54.288 L 107.555 57.63 L 111.648 57.63 L 111.648 59.133 L 105.878 59.133 Z  M 112.983 57.063 L 114.322 56.444 C 114.451 56.905 114.684 57.256 115.024 57.497 C 115.361 57.74 115.795 57.86 116.324 57.86 C 116.825 57.86 117.22 57.721 117.517 57.444 C 117.811 57.167 117.957 56.795 117.957 56.331 C 117.957 55.724 117.454 55.18 116.444 54.706 C 116.301 54.635 116.193 54.582 116.118 54.552 C 114.978 53.995 114.218 53.493 113.84 53.043 C 113.462 52.591 113.272 52.042 113.272 51.393 C 113.272 50.549 113.559 49.867 114.129 49.344 C 114.701 48.821 115.454 48.56 116.381 48.56 C 117.143 48.56 117.783 48.707 118.296 49.001 C 118.81 49.295 119.163 49.718 119.361 50.266 L 118.049 50.947 C 117.842 50.622 117.616 50.383 117.367 50.234 C 117.118 50.082 116.835 50.007 116.514 50.007 C 116.062 50.007 115.701 50.125 115.436 50.362 C 115.168 50.595 115.036 50.911 115.036 51.307 C 115.036 51.928 115.622 52.51 116.791 53.044 C 116.881 53.088 116.95 53.122 117.003 53.144 C 118.025 53.616 118.727 54.076 119.108 54.524 C 119.488 54.976 119.679 55.537 119.679 56.209 C 119.679 57.189 119.371 57.968 118.754 58.544 C 118.136 59.119 117.301 59.41 116.251 59.41 C 115.371 59.41 114.65 59.206 114.087 58.802 C 113.525 58.396 113.156 57.818 112.983 57.063 L 112.983 57.063 Z  M 120.92 57.063 L 122.262 56.444 C 122.389 56.905 122.623 57.256 122.963 57.497 C 123.3 57.74 123.734 57.86 124.262 57.86 C 124.764 57.86 125.159 57.721 125.456 57.444 C 125.749 57.167 125.897 56.795 125.897 56.331 C 125.897 55.724 125.392 55.18 124.382 54.706 C 124.24 54.635 124.131 54.582 124.057 54.552 C 122.917 53.995 122.157 53.493 121.779 53.043 C 121.4 52.591 121.21 52.042 121.21 51.393 C 121.21 50.549 121.497 49.867 122.068 49.344 C 122.639 48.821 123.391 48.56 124.319 48.56 C 125.082 48.56 125.72 48.707 126.233 49.001 C 126.747 49.295 127.102 49.718 127.299 50.266 L 125.988 50.947 C 125.781 50.622 125.554 50.383 125.306 50.234 C 125.057 50.082 124.773 50.007 124.453 50.007 C 124.002 50.007 123.64 50.125 123.374 50.362 C 123.108 50.595 122.975 50.911 122.975 51.307 C 122.975 51.928 123.561 52.51 124.729 53.044 C 124.82 53.088 124.889 53.122 124.942 53.144 C 125.964 53.616 126.666 54.076 127.047 54.524 C 127.427 54.976 127.617 55.537 127.617 56.209 C 127.617 57.189 127.309 57.968 126.692 58.544 C 126.075 59.119 125.24 59.41 124.19 59.41 C 123.31 59.41 122.588 59.206 122.024 58.802 C 121.464 58.396 121.094 57.818 120.92 57.063 L 120.92 57.063 Z " fill="rgb(249,168,111)"/><path d=" M 62.622 53.986 C 62.622 52.203 64.068 50.757 65.851 50.757 C 67.632 50.757 69.08 52.203 69.08 53.986 C 69.08 55.767 67.632 57.213 65.851 57.213 C 64.068 57.213 62.622 55.767 62.622 53.986 Z " fill="rgb(103,199,194)"/></g><path d=" M 31.702 0.597 C 30.936 1.882 29.697 2.963 28.008 3.864 C 26.306 4.754 24.684 5.205 23.118 5.205 C 21.574 5.205 19.411 4.754 16.606 3.853 C 13.835 2.952 12.043 2.501 11.221 2.501 C 9.711 2.501 8.405 3.087 7.312 4.248 C 6.219 5.419 5.678 6.827 5.678 8.483 C 5.678 10.083 6.174 11.401 7.176 12.427 C 8.179 13.452 9.43 14.251 10.917 14.837 C 12.393 15.412 14.714 16.144 17.868 17.023 C 21.011 17.879 23.546 18.724 25.461 19.547 C 27.365 20.38 28.987 21.608 30.317 23.253 C 31.646 24.898 32.311 27.05 32.311 29.72 C 32.311 33.708 30.677 37.257 27.41 40.355 C 24.143 43.465 20.099 45.019 15.277 45.019 C 10.883 45.019 7.233 43.87 4.337 41.56 C 1.442 39.251 0 36.502 0 33.314 C 0 30.97 0.845 29.01 2.546 27.433 C 4.236 25.867 6.433 25.078 9.115 25.078 C 11.942 25.078 14.32 25.855 16.268 27.41 C 18.217 28.954 19.197 30.801 19.197 32.93 C 19.197 34.384 18.702 35.578 17.699 36.513 C 16.696 37.448 15.491 37.921 14.071 37.921 C 11.739 37.921 10.004 36.84 8.855 34.666 L 9.678 34.203 C 10.522 35.06 11.446 35.488 12.46 35.488 C 13.542 35.488 14.432 35.116 15.153 34.362 C 15.862 33.606 16.223 32.671 16.223 31.533 C 16.223 30.114 15.626 28.931 14.42 27.985 C 13.226 27.038 11.773 26.565 10.083 26.565 C 8.101 26.565 6.455 27.286 5.137 28.728 C 3.83 30.16 3.177 31.883 3.177 33.888 C 3.177 36.524 4.349 38.789 6.692 40.693 C 9.035 42.586 11.987 43.532 15.558 43.532 C 19.366 43.532 22.532 42.338 25.066 39.938 C 27.602 37.55 28.863 34.744 28.863 31.522 C 28.863 29.314 28.278 27.535 27.106 26.16 C 25.923 24.796 24.526 23.771 22.881 23.084 C 21.248 22.397 18.961 21.653 16.032 20.842 C 13.091 20.042 10.804 19.287 9.17 18.612 C 7.526 17.924 6.151 16.933 5.047 15.637 C 3.932 14.33 3.38 12.64 3.38 10.545 C 3.38 7.683 4.518 5.216 6.782 3.155 C 9.047 1.093 11.671 0.068 14.669 0.068 C 16.054 0.068 18.037 0.428 20.617 1.16 C 23.208 1.87 25.078 2.231 26.227 2.231 C 28.097 2.231 29.72 1.487 31.105 0 L 31.702 0.597 L 31.702 0.597 L 31.702 0.597 Z  M 60.982 38.98 C 58.336 42.912 55.812 44.884 53.401 44.884 C 52.59 44.884 51.981 44.613 51.553 44.073 C 51.125 43.532 50.911 42.36 50.911 40.546 L 50.911 37.764 C 48.511 41.256 46.833 43.363 45.852 44.084 C 44.884 44.793 43.96 45.154 43.092 45.154 C 42.18 45.154 41.481 44.85 40.975 44.23 C 40.479 43.622 40.231 42.191 40.231 39.949 L 40.231 34.542 C 39.284 36.66 38.315 38.327 37.336 39.555 L 36.243 38.8 C 38.203 35.984 39.533 33.145 40.231 30.283 L 43.543 28.593 L 43.543 40.546 C 43.543 41.403 43.588 41.978 43.69 42.27 C 43.79 42.574 44.061 42.721 44.512 42.721 C 44.997 42.721 45.638 42.349 46.427 41.594 C 47.216 40.85 48.162 39.645 49.266 38 C 50.359 36.344 50.911 35.443 50.911 35.285 L 50.911 30.283 L 54.223 28.593 L 54.223 38.924 C 54.223 40.287 54.268 41.211 54.37 41.707 C 54.471 42.202 54.753 42.451 55.203 42.451 C 56.274 42.451 57.873 41.008 59.991 38.124 L 60.982 38.98 L 60.982 38.98 L 60.982 38.98 Z  M 64.171 17.845 C 64.171 16.505 64.565 15.446 65.354 14.68 C 66.143 13.902 67.157 13.519 68.407 13.519 C 71.088 13.519 73.477 14.894 75.572 17.643 C 77.656 20.403 78.704 23.918 78.704 28.21 C 78.704 32.92 77.578 36.873 75.325 40.085 C 73.06 43.284 70.491 44.884 67.595 44.884 C 65.973 44.884 64.667 44.377 63.653 43.374 C 62.65 42.372 62.143 41.166 62.143 39.758 L 62.143 38.597 C 62.143 37.989 62.165 37.583 62.21 37.381 L 60.622 39.555 L 59.507 38.8 C 63.844 32.086 67.923 28.728 71.753 28.728 C 73.803 28.728 75.381 29.585 76.473 31.308 C 76.608 30.34 76.677 29.404 76.677 28.525 C 76.677 25.574 75.764 22.893 73.95 20.47 C 72.136 18.048 70.03 16.831 67.619 16.831 C 66.391 16.831 65.241 17.17 64.171 17.845 L 64.171 17.845 L 64.171 17.845 Z  M 69.354 42.451 C 71.021 42.451 72.519 41.605 73.871 39.927 C 75.212 38.248 75.888 36.4 75.888 34.407 C 75.888 33.088 75.505 32.041 74.75 31.286 C 73.995 30.53 72.981 30.148 71.719 30.148 C 70.03 30.148 68.542 30.925 67.258 32.491 C 65.962 34.046 65.32 35.77 65.32 37.64 C 65.32 39.059 65.692 40.22 66.436 41.11 C 67.179 42 68.148 42.451 69.354 42.451 L 69.354 42.451 L 69.354 42.451 Z  M 81.408 38.98 C 78.986 42.811 75.775 44.962 71.776 45.425 L 71.472 44.67 C 75.065 43.847 78.017 41.696 80.349 38.192 L 81.408 38.98 L 81.408 38.98 L 81.408 38.98 Z  M 79.842 38.733 C 82.703 34.666 85.047 32.041 86.883 30.846 C 88.709 29.664 90.624 29.067 92.629 29.067 C 94.544 29.067 96.042 29.573 97.135 30.587 C 98.228 31.59 98.769 32.999 98.769 34.801 C 98.769 37.37 97.733 39.713 95.66 41.842 C 93.598 43.96 91.175 45.019 88.427 45.019 C 86.647 45.019 85.216 44.489 84.146 43.42 C 83.075 42.36 82.546 41.008 82.546 39.363 C 82.546 38.485 82.614 37.685 82.749 36.986 C 82.411 37.358 81.813 38.215 80.935 39.555 L 79.842 38.733 L 79.842 38.733 L 79.842 38.733 Z  M 90.578 42.856 C 92.258 42.856 93.587 42.247 94.578 41.042 C 95.569 39.837 96.065 38.225 96.065 36.232 C 96.065 34.497 95.603 33.133 94.679 32.153 C 93.755 31.173 92.527 30.689 91.006 30.689 C 89.407 30.689 88.123 31.274 87.165 32.435 C 86.207 33.606 85.723 35.229 85.723 37.313 C 85.723 41.008 87.345 42.856 90.578 42.856 L 90.578 42.856 L 90.578 42.856 Z  M 102.487 38.913 C 100.729 41.425 99.062 43.081 97.507 43.893 C 95.941 44.693 94.375 45.177 92.821 45.357 L 92.55 44.603 C 96.178 43.78 99.13 41.628 101.394 38.124 L 102.487 38.913 L 102.487 38.913 L 102.487 38.913 Z  M 118.71 38.992 C 116.22 42.923 113.73 44.884 111.218 44.884 C 108.638 44.884 107.354 43.42 107.354 40.49 C 107.354 38.113 108.492 35.522 110.756 32.716 C 110.35 32.807 109.652 32.851 108.627 32.851 C 107.973 32.851 107.275 32.716 106.542 32.457 C 105.428 34.902 103.94 37.291 102.093 39.622 L 101.067 38.8 C 103.163 35.803 104.988 32.401 106.542 28.593 C 108.638 29.585 110.294 30.08 111.499 30.08 C 112.638 30.08 113.617 29.63 114.451 28.728 L 114.992 29.123 C 113.652 30.79 112.57 32.48 111.759 34.192 C 110.937 35.894 110.531 37.764 110.531 39.814 C 110.531 40.445 110.745 41.054 111.162 41.605 C 111.578 42.169 112.04 42.451 112.547 42.451 C 113.392 42.451 114.192 42.113 114.97 41.425 C 115.747 40.75 116.659 39.668 117.718 38.192 L 118.71 38.992 L 118.71 38.992 Z  M 136.364 38.98 C 135.068 41.099 133.649 42.631 132.105 43.589 C 130.561 44.546 128.534 45.019 126.021 45.019 C 124.197 45.019 122.743 44.478 121.673 43.385 C 120.603 42.293 120.073 40.76 120.073 38.789 C 120.073 38.26 120.118 37.696 120.208 37.099 C 119.408 38.124 118.812 38.947 118.394 39.555 L 117.301 38.8 C 120.163 34.756 122.371 32.097 123.903 30.824 C 125.447 29.562 127.036 28.931 128.658 28.931 C 129.57 28.931 130.314 29.191 130.889 29.72 C 131.474 30.25 131.767 30.936 131.767 31.77 C 131.767 34.632 129.243 37.448 124.197 40.22 C 124.883 41.797 126.303 42.586 128.466 42.586 C 129.503 42.586 130.652 42.214 131.913 41.459 C 133.186 40.715 134.336 39.622 135.372 38.192 L 136.364 38.98 L 136.364 38.98 L 136.364 38.98 Z  M 123.577 38.935 C 127.238 37.155 129.063 35.173 129.063 32.999 C 129.063 32.345 128.883 31.804 128.523 31.387 C 128.15 30.97 127.666 30.756 127.047 30.756 C 125.92 30.756 124.974 31.274 124.207 32.311 C 123.43 33.336 123.047 34.587 123.047 36.029 C 123.047 36.828 123.137 37.493 123.306 38.045 C 123.487 38.575 123.577 38.868 123.577 38.935 Z " fill="rgb(103,199,194)"/></g></g></g></g></svg>