<?xml version="1.0" standalone="no"?><!-- Generator: Gravit.io --><svg xmlns="http://www.w3.org/2000/svg" xmlns:xlink="http://www.w3.org/1999/xlink" style="isolation:isolate" viewBox="0 0 59.168 108.973" width="59.168" height="108.973"><defs><clipPath id="_clipPath_1BllIkJOA6NDGW84vjcE10ofpRZgvmhK"><rect width="59.168" height="108.973"/></clipPath></defs><g clip-path="url(#_clipPath_1BllIkJOA6NDGW84vjcE10ofpRZgvmhK)"><g id="heat-action"><path d=" M 47.99 56.767 C 47.69 56.237 47.801 55.336 47.381 54.381 C 46.96 53.426 45.395 51.898 45.395 51.898 C 46.349 41.892 45.395 39.41 45.395 39.41 C 45.395 39.41 44.86 35.171 44.402 33.453 C 43.944 31.734 43.7 27.356 43.7 27.356 C 44.173 24.277 44.173 23.102 42.698 20.911 C 41.223 18.72 38.029 18.004 36.082 17.245 C 34.892 16.781 33.936 15.766 33.372 15.044 C 33.065 14.363 32.826 13.605 32.753 12.869 L 32.73 12.319 C 32.73 12.319 32.73 12.319 32.73 12.319 C 32.776 10.251 35.682 8.439 35.868 5.906 C 36.053 3.374 34.496 1.073 31.336 0.306 C 28.176 -0.461 25.759 0.259 24.667 1.956 C 23.574 3.652 23.691 4.396 23.761 4.698 C 23.83 5 24.188 5.72 23.718 6.255 C 23.249 6.789 22.343 8.044 22.39 8.439 C 22.436 8.834 23.133 8.927 23.133 8.927 C 23.133 8.927 23.342 9.392 23.18 9.578 C 23.017 9.764 23.18 10.113 23.621 10.159 C 23.621 10.159 23.18 10.763 23.388 11.018 C 23.598 11.274 23.761 11.088 23.761 11.181 C 23.761 11.274 23.11 12.715 24.04 13.157 C 24.714 13.477 25.842 13.197 26.409 13.02 L 26.358 14.244 C 26.358 14.244 25.035 16.486 23.087 17.245 C 21.139 18.004 17.946 18.72 16.471 20.911 C 14.996 23.102 14.996 24.277 15.468 27.356 C 15.468 27.356 15.224 31.734 14.767 33.453 C 14.308 35.171 13.774 39.41 13.774 39.41 C 13.774 39.41 12.819 41.892 13.774 51.898 C 13.774 51.898 12.208 53.426 11.788 54.381 C 11.368 55.336 11.478 56.237 11.178 56.767 C 10.878 57.297 11.375 58.005 12.362 56.767 L 11.988 60.997 C 11.988 60.997 11.759 61.599 12.361 61.685 C 12.961 61.77 13.076 58.046 13.449 57.933 C 13.821 57.818 13.104 62.143 13.907 62.114 C 14.709 62.086 14.165 57.732 14.68 57.789 C 15.196 57.846 14.767 61.569 15.34 61.569 C 15.913 61.569 15.368 57.388 15.855 57.417 C 16.342 57.445 16.227 60.367 16.857 60.195 C 17.487 60.023 16.628 58.247 16.972 57.13 C 17.316 56.013 17.345 52.891 16.428 51.888 C 16.428 51.888 19.349 43.468 18.49 39.171 C 18.49 39.171 20.67 34.534 20.529 28.66 C 20.609 29.27 20.781 29.946 21.154 30.291 C 21.154 30.291 20.953 33.414 21.669 34.359 C 21.669 34.359 21.498 44.041 21.583 44.928 C 21.583 44.928 19.407 56.558 19.463 61.599 C 19.521 66.64 21.182 75.805 21.182 75.805 L 21.354 79.242 C 21.354 79.242 19.979 83.425 20.667 85.659 C 21.354 87.893 23.588 97.115 23.416 100.037 C 23.416 100.037 22.552 102.108 22.971 103.883 C 22.971 103.883 20.26 107.031 21.825 107.773 C 21.825 107.773 22.067 108.322 22.761 108.177 C 22.761 108.177 22.777 108.79 23.681 108.387 C 23.681 108.387 23.972 109.275 24.859 108.096 C 24.859 108.096 24.859 109.13 25.957 108.952 C 27.055 108.774 27.152 107.644 26.974 106.885 L 27.045 104.642 C 27.045 104.642 27.399 103.437 27.399 103.002 C 27.399 102.565 27.313 101.43 26.457 98.686 C 26.457 98.686 26.185 94.404 27.064 91.349 C 27.942 88.294 26.758 84.474 26.414 83.023 C 26.07 81.572 26.3 79.51 26.3 79.51 C 26.3 79.51 27.445 77.562 27.026 75.5 C 27.026 75.5 27.942 74.43 28.095 70.23 C 28.247 66.029 29.088 66.449 29.202 61.446 C 29.317 56.443 29.202 55.756 29.202 55.756 C 29.202 55.756 29.317 55.794 29.584 55.794 C 29.852 55.794 29.966 55.756 29.966 55.756 C 29.966 55.756 29.851 56.443 29.966 61.446 C 30.08 66.449 30.921 66.029 31.073 70.23 C 31.226 74.43 32.143 75.5 32.143 75.5 C 31.723 77.562 32.868 79.51 32.868 79.51 C 32.868 79.51 33.098 81.572 32.754 83.023 C 32.41 84.474 31.226 88.294 32.105 91.349 C 32.983 94.404 32.711 98.686 32.711 98.686 C 31.855 101.43 31.839 102.663 31.839 103.098 C 31.839 103.534 32.124 104.642 32.124 104.642 L 32.194 106.885 C 32.017 107.644 32.113 108.774 33.211 108.952 C 34.309 109.13 34.309 108.096 34.309 108.096 C 35.196 109.275 35.487 108.387 35.487 108.387 C 36.391 108.79 36.407 108.177 36.407 108.177 C 37.101 108.322 37.343 107.773 37.343 107.773 C 38.909 107.031 36.197 103.883 36.197 103.883 C 36.617 102.108 35.752 100.037 35.752 100.037 C 35.58 97.115 37.814 87.893 38.501 85.659 C 39.189 83.425 37.814 79.242 37.814 79.242 L 37.986 75.805 C 37.986 75.805 39.647 66.64 39.705 61.599 C 39.762 56.558 37.585 44.928 37.585 44.928 C 37.671 44.041 37.499 34.359 37.499 34.359 C 38.216 33.414 38.015 30.291 38.015 30.291 C 38.387 29.946 38.559 29.27 38.639 28.66 C 38.499 34.534 40.679 39.171 40.679 39.171 C 39.82 43.468 42.74 51.888 42.74 51.888 C 41.824 52.891 41.853 56.013 42.197 57.13 C 42.54 58.247 41.681 60.023 42.311 60.195 C 42.941 60.367 42.826 57.445 43.313 57.417 C 43.801 57.388 43.256 61.569 43.829 61.569 C 44.402 61.569 43.972 57.846 44.488 57.789 C 45.004 57.732 44.459 62.086 45.261 62.114 C 46.063 62.143 45.347 57.818 45.719 57.933 C 46.092 58.046 46.207 61.77 46.808 61.685 C 47.41 61.599 47.18 60.997 47.18 60.997 L 46.807 56.767 C 47.793 58.005 48.29 57.297 47.99 56.767 L 47.99 56.767 Z " fill="rgb(254,254,254)"/><g id="_2251516783312"><path d=" M 0 102.138 C 0 104.961 2.289 107.25 5.112 107.25 C 7.935 107.25 10.223 104.961 10.223 102.138 C 10.223 99.315 7.935 97.027 5.112 97.027 C 2.289 97.027 0 99.315 0 102.138 Z " fill="rgb(245,134,52)"/><path d=" M 0 78.906 C 0 81.729 2.289 84.016 5.112 84.016 C 7.935 84.016 10.223 81.729 10.223 78.906 C 10.223 76.083 7.935 73.793 5.112 73.793 C 2.289 73.793 0 76.083 0 78.906 Z " fill="rgb(245,134,52)"/><path d=" M 0 55.672 C 0 58.495 2.289 60.783 5.112 60.783 C 7.935 60.783 10.223 58.495 10.223 55.672 C 10.223 52.849 7.935 50.56 5.112 50.56 C 2.289 50.56 0 52.849 0 55.672 Z " fill="rgb(245,134,52)"/><path d=" M 0 32.439 C 0 35.261 2.289 37.55 5.112 37.55 C 7.935 37.55 10.223 35.261 10.223 32.439 C 10.223 29.616 7.935 27.328 5.112 27.328 C 2.289 27.328 0 29.616 0 32.439 Z " fill="rgb(245,134,52)"/><path d=" M 12.391 90.677 C 12.391 93.5 14.68 95.789 17.503 95.789 C 20.326 95.789 22.614 93.5 22.614 90.677 C 22.614 87.853 20.326 85.566 17.503 85.566 C 14.68 85.566 12.391 87.853 12.391 90.677 Z " fill="rgb(245,134,52)"/><path d=" M 12.391 67.444 C 12.391 70.266 14.68 72.555 17.503 72.555 C 20.326 72.555 22.614 70.266 22.614 67.444 C 22.614 64.621 20.326 62.332 17.503 62.332 C 14.68 62.332 12.391 64.621 12.391 67.444 Z " fill="rgb(245,134,52)"/><path d=" M 12.391 44.21 C 12.391 47.033 14.68 49.321 17.503 49.321 C 20.326 49.321 22.614 47.033 22.614 44.21 C 22.614 41.387 20.326 39.099 17.503 39.099 C 14.68 39.099 12.391 41.387 12.391 44.21 Z " fill="rgb(245,134,52)"/><path d=" M 12.391 20.977 C 12.391 23.799 14.68 26.089 17.503 26.089 C 20.326 26.089 22.614 23.799 22.614 20.977 C 22.614 18.154 20.326 15.866 17.503 15.866 C 14.68 15.866 12.391 18.154 12.391 20.977 Z " fill="rgb(245,134,52)"/><path d=" M 24.472 78.906 C 24.472 81.729 26.761 84.016 29.585 84.016 C 32.408 84.016 34.696 81.729 34.696 78.906 C 34.696 76.083 32.408 73.793 29.585 73.793 C 26.761 73.793 24.472 76.083 24.472 78.906 Z " fill="rgb(245,134,52)"/><path d=" M 24.472 55.672 C 24.472 58.495 26.761 60.783 29.585 60.783 C 32.408 60.783 34.696 58.495 34.696 55.672 C 34.696 52.849 32.408 50.56 29.585 50.56 C 26.761 50.56 24.472 52.849 24.472 55.672 Z " fill="rgb(245,134,52)"/><path d=" M 24.472 32.439 C 24.472 35.261 26.761 37.55 29.585 37.55 C 32.408 37.55 34.696 35.261 34.696 32.439 C 34.696 29.616 32.408 27.328 29.585 27.328 C 26.761 27.328 24.472 29.616 24.472 32.439 Z " fill="rgb(245,134,52)"/><path d=" M 24.472 9.204 C 24.472 12.027 26.761 14.317 29.585 14.317 C 32.408 14.317 34.696 12.027 34.696 9.204 C 34.696 6.382 32.408 4.094 29.585 4.094 C 26.761 4.094 24.472 6.382 24.472 9.204 Z " fill="rgb(245,134,52)"/><path d=" M 36.865 90.677 C 36.865 93.5 39.153 95.789 41.975 95.789 C 44.798 95.789 47.087 93.5 47.087 90.677 C 47.087 87.853 44.798 85.566 41.975 85.566 C 39.153 85.566 36.865 87.853 36.865 90.677 Z " fill="rgb(245,134,52)"/><path d=" M 36.865 67.444 C 36.865 70.266 39.153 72.555 41.975 72.555 C 44.798 72.555 47.087 70.266 47.087 67.444 C 47.087 64.621 44.798 62.332 41.975 62.332 C 39.153 62.332 36.865 64.621 36.865 67.444 Z " fill="rgb(245,134,52)"/><path d=" M 36.865 44.21 C 36.865 47.033 39.153 49.321 41.975 49.321 C 44.798 49.321 47.087 47.033 47.087 44.21 C 47.087 41.387 44.798 39.099 41.975 39.099 C 39.153 39.099 36.865 41.387 36.865 44.21 Z " fill="rgb(245,134,52)"/><path d=" M 36.865 20.977 C 36.865 23.799 39.153 26.089 41.975 26.089 C 44.798 26.089 47.087 23.799 47.087 20.977 C 47.087 18.154 44.798 15.866 41.975 15.866 C 39.153 15.866 36.865 18.154 36.865 20.977 Z " fill="rgb(245,134,52)"/><path d=" M 48.945 102.138 C 48.945 104.961 51.235 107.25 54.056 107.25 C 56.88 107.25 59.168 104.961 59.168 102.138 C 59.168 99.315 56.88 97.027 54.056 97.027 C 51.235 97.027 48.945 99.315 48.945 102.138 Z " fill="rgb(245,134,52)"/><path d=" M 48.945 78.906 C 48.945 81.729 51.235 84.016 54.056 84.016 C 56.88 84.016 59.168 81.729 59.168 78.906 C 59.168 76.083 56.88 73.793 54.056 73.793 C 51.235 73.793 48.945 76.083 48.945 78.906 Z " fill="rgb(245,134,52)"/><path d=" M 48.945 55.672 C 48.945 58.495 51.235 60.783 54.056 60.783 C 56.88 60.783 59.168 58.495 59.168 55.672 C 59.168 52.849 56.88 50.56 54.056 50.56 C 51.235 50.56 48.945 52.849 48.945 55.672 Z " fill="rgb(245,134,52)"/><path d=" M 48.945 32.439 C 48.945 35.261 51.235 37.55 54.056 37.55 C 56.88 37.55 59.168 35.261 59.168 32.439 C 59.168 29.616 56.88 27.328 54.056 27.328 C 51.235 27.328 48.945 29.616 48.945 32.439 Z " fill="rgb(245,134,52)"/></g></g></g></svg>