<?xml version="1.0" standalone="no"?><!-- Generator: Gravit.io --><svg xmlns="http://www.w3.org/2000/svg" xmlns:xlink="http://www.w3.org/1999/xlink" style="isolation:isolate" viewBox="0 0 55 55" width="55" height="55"><defs><clipPath id="_clipPath_Pyv4eYzGd7asRuBXiiBy7ov4oOXqHGre"><rect width="55" height="55"/></clipPath></defs><g clip-path="url(#_clipPath_Pyv4eYzGd7asRuBXiiBy7ov4oOXqHGre)"><g id="_2251669217952"><path d=" M 38.417 35.39 C 32.961 31.946 35.588 26.02 35.588 26.02 L 17.305 26.02 C 17.305 26.02 19.932 31.946 14.475 35.39 C 10.598 37.837 4.278 38.545 0 40.056 L 0 55 L 55 55 L 55 40.977 C 50.999 38.745 43.001 38.283 38.417 35.39 Z " fill="rgb(254,254,254)" vector-effect="non-scaling-stroke" stroke-width="0.288" stroke="rgb(55,52,53)" stroke-linejoin="miter" stroke-linecap="butt" stroke-miterlimit="22.9256"/><path d=" M 43.157 0 C 43.894 2.447 44.422 5.301 44.167 8.275 C 43.853 11.957 41.906 14.38 40.834 17.813 C 38.991 14.397 39.216 19.292 39.258 20.38 C 39.355 22.875 38.896 25.362 38.735 27.845 C 37.707 27.474 36.99 26.158 36.017 25.455 C 35.181 27.61 34.568 29.993 32.589 31.391 C 32.551 31.11 30.97 26.564 30.336 27.396 C 29.749 28.167 29.402 29.049 29.307 30.012 C 28.108 29.633 27.047 28.775 26.532 27.665 C 24.656 28.374 24.018 30.374 24.082 32.309 C 21.59 28.436 17.273 27.928 15.21 23.364 C 14.693 24.148 13.796 25.043 13.07 25.597 C 12.868 22.865 12.809 20.83 11.444 18.329 C 10.394 16.407 9.456 15.133 9.216 12.885 C 8.059 13.807 7.331 15.009 7.25 16.519 C 5.426 11.252 6.318 7.916 6.741 2.512 L 7.243 0 L 43.157 0 L 43.157 0 Z " fill="rgb(245,134,52)" vector-effect="non-scaling-stroke" stroke-width="0.235" stroke="rgb(55,52,53)" stroke-linejoin="miter" stroke-linecap="butt" stroke-miterlimit="10"/><g id="Group"><path d=" M 12.204 37.799 C 12.204 35.71 10.511 34.016 8.422 34.016 C 6.333 34.016 4.639 35.71 4.639 37.799 C 4.639 39.888 6.333 41.582 8.422 41.582 C 10.511 41.582 12.204 39.888 12.204 37.799 Z " fill="rgb(245,134,52)"/><path d=" M 14.2 37.799 C 14.2 34.607 11.613 32.02 8.422 32.02 C 5.231 32.02 2.644 34.607 2.644 37.799 C 2.644 40.99 5.231 43.577 8.422 43.577 C 11.613 43.577 14.2 40.99 14.2 37.799 Z " fill="none" vector-effect="non-scaling-stroke" stroke-width="0.687" stroke="rgb(245,134,52)" stroke-linejoin="miter" stroke-linecap="butt" stroke-miterlimit="10"/><path d=" M 16.531 37.799 C 16.531 33.32 12.9 29.689 8.422 29.689 C 3.943 29.689 0.312 33.32 0.312 37.799 C 0.312 42.278 3.943 45.908 8.422 45.908 C 12.9 45.908 16.531 42.278 16.531 37.799 Z " fill="none" vector-effect="non-scaling-stroke" stroke-width="0.343" stroke="rgb(245,134,52)" stroke-linejoin="miter" stroke-linecap="butt" stroke-miterlimit="10"/></g></g></g></svg>