<?xml version="1.0" standalone="no"?><!-- Generator: Gravit.io --><svg xmlns="http://www.w3.org/2000/svg" xmlns:xlink="http://www.w3.org/1999/xlink" style="isolation:isolate" viewBox="0 0 55 55" width="55" height="55"><defs><clipPath id="_clipPath_fIzEyPa97vpC3yuSAgxW7M60Zata9U1N"><rect width="55" height="55"/></clipPath></defs><g clip-path="url(#_clipPath_fIzEyPa97vpC3yuSAgxW7M60Zata9U1N)"><clipPath id="_clipPath_9DNWhfvy3VW3lJApSi0Tu52j2f1UVncG"><rect x="0" y="0" width="55" height="55" transform="matrix(1,0,0,1,0,0)" fill="rgb(255,255,255)"/></clipPath><g clip-path="url(#_clipPath_9DNWhfvy3VW3lJApSi0Tu52j2f1UVncG)"><g id="Group"><g id="_2251669215040"><path d=" M 5.279 38.264 C 1.832 19.089 14.06 8.084 14.194 8.026 L 14.443 8.601 L 14.005 9.049 L 14.443 8.601 L 14.849 9.078 C 14.732 9.181 3.253 19.919 6.512 38.043 L 5.279 38.264 L 5.279 38.264 Z " fill="rgb(254,254,254)" vector-effect="non-scaling-stroke" stroke-width="0.4" stroke="rgb(55,52,53)" stroke-opacity="100" stroke-linejoin="miter" stroke-linecap="butt" stroke-miterlimit="10"/><path d=" M 30.882 42.908 L 27.753 44.126 L 20.582 7.582 L 21.869 7.082 L 30.882 42.908 L 30.882 42.908 Z " fill="rgb(254,254,254)" vector-effect="non-scaling-stroke" stroke-width="0.3" stroke="rgb(55,52,53)" stroke-linejoin="miter" stroke-linecap="butt" stroke-miterlimit="4"/><path d=" M 36.765 40.621 L 33.635 41.838 L 23 6.642 L 24.287 6.141 L 36.765 40.621 L 36.765 40.621 Z " fill="rgb(254,254,254)" vector-effect="non-scaling-stroke" stroke-width="0.3" stroke="rgb(55,52,53)" stroke-linejoin="miter" stroke-linecap="butt" stroke-miterlimit="4"/><path d=" M 42.647 38.332 L 39.518 39.55 L 25.418 5.701 L 26.704 5.201 L 42.647 38.332 L 42.647 38.332 Z " fill="rgb(254,254,254)" vector-effect="non-scaling-stroke" stroke-width="0.3" stroke="rgb(55,52,53)" stroke-linejoin="miter" stroke-linecap="butt" stroke-miterlimit="4"/><path d=" M 48.53 36.044 L 45.4 37.262 L 27.836 4.761 L 29.123 4.26 L 48.53 36.044 L 48.53 36.044 Z " fill="rgb(254,254,254)" vector-effect="non-scaling-stroke" stroke-width="0.3" stroke="rgb(55,52,53)" stroke-linejoin="miter" stroke-linecap="butt" stroke-miterlimit="4"/><path d=" M 24.425 3.603 C 21.166 4.694 18.259 6.62 15.986 9.176 C 15.445 9.781 14.523 9.923 13.871 9.44 L 13.848 9.423 C 13.197 8.943 13.136 7.924 13.774 7.208 C 16.389 4.267 19.735 2.052 23.486 0.796 C 23.799 1.731 24.112 2.667 24.425 3.603 L 24.425 3.603 L 24.425 3.603 Z " fill="rgb(245,134,52)" vector-effect="non-scaling-stroke" stroke-width="0.3" stroke="rgb(55,52,53)" stroke-linejoin="miter" stroke-linecap="butt" stroke-miterlimit="4"/><path d=" M 29.743 4.377 C 26.757 6.103 23.588 7.363 20.21 8.086 L 19.225 6.787 L 29.593 2.754 L 29.743 4.377 L 29.743 4.377 L 29.743 4.377 Z " fill="rgb(245,134,52)" vector-effect="non-scaling-stroke" stroke-width="0.4" stroke="rgb(55,52,53)" stroke-opacity="100" stroke-linejoin="miter" stroke-linecap="butt" stroke-miterlimit="10"/><path d=" M 29.601 2.748 L 19.215 6.788 L 19.198 6.744 C 18.255 4.319 19.457 1.588 21.881 0.645 L 23.484 0.021 C 25.909 -0.922 28.64 0.28 29.583 2.704 L 29.601 2.748 L 29.601 2.748 Z " fill="rgb(245,134,52)" vector-effect="non-scaling-stroke" stroke-width="0.4" stroke="rgb(55,52,53)" stroke-opacity="100" stroke-linejoin="miter" stroke-linecap="butt" stroke-miterlimit="10"/><path d=" M 21.132 3.821 C 20.881 4.519 20.348 4.965 19.945 4.82 C 19.541 4.674 19.417 3.99 19.669 3.293 C 19.921 2.596 20.453 2.149 20.857 2.295 C 21.261 2.441 21.384 3.124 21.132 3.821 Z " fill="rgb(255,255,255)"/><path d=" M 41.323 52.856 L 13.677 52.856 C 8.696 52.856 4.658 48.818 4.658 43.837 L 4.658 38.154 C 20.81 38.478 35.757 37.123 50.342 35.262 L 50.342 43.837 C 50.342 48.818 46.304 52.856 41.323 52.856 L 41.323 52.856 L 41.323 52.856 Z " fill="rgb(254,254,254)" vector-effect="non-scaling-stroke" stroke-width="0.4" stroke="rgb(0,0,0)" stroke-linejoin="miter" stroke-linecap="butt" stroke-miterlimit="4"/><path d=" M 9.376 39.857 C 7.806 39.857 6.223 39.843 4.624 39.81 C 3.71 39.792 2.982 39.035 3 38.12 C 3.019 37.205 3.788 36.462 4.691 36.497 C 22.203 36.845 38.177 35.143 50.133 33.619 C 51.037 33.502 51.871 34.145 51.987 35.053 C 52.102 35.961 51.46 36.791 50.552 36.906 C 39.572 38.307 25.23 39.857 9.376 39.857 L 9.376 39.857 L 9.376 39.857 Z " fill="rgb(245,134,52)" vector-effect="non-scaling-stroke" stroke-width="0.4" stroke="rgb(55,52,53)" stroke-opacity="100" stroke-linejoin="miter" stroke-linecap="butt" stroke-miterlimit="10"/><path d=" M 11.562 55.3 L 11.54 55.3 C 10.917 55.3 10.411 54.796 10.411 54.173 L 10.411 51.457 C 10.411 50.834 10.917 50.329 11.54 50.329 L 11.562 50.329 C 12.185 50.329 12.69 50.834 12.69 51.457 L 12.69 54.173 C 12.69 54.796 12.185 55.3 11.562 55.3 Z " fill="rgb(218,218,218)"/><path d=" M 42.012 55.3 L 41.99 55.3 C 41.366 55.3 40.862 54.796 40.862 54.173 L 40.862 51.457 C 40.862 50.834 41.366 50.329 41.99 50.329 L 42.012 50.329 C 42.635 50.329 43.14 50.834 43.14 51.457 L 43.14 54.173 C 43.14 54.796 42.635 55.3 42.012 55.3 Z " fill="rgb(218,218,218)"/><linearGradient id="_lgradient_0" x1="0%" y1="50%" x2="65.78140018460844%" y2="125.31804159530702%"><stop offset="0%" stop-opacity="1" style="stop-color:rgb(20,87,128)"/><stop offset="14.745250973797152%" stop-opacity="1" style="stop-color:rgb(20,87,128)"/><stop offset="100%" stop-opacity="1" style="stop-color:rgb(25,96,136)"/></linearGradient><path d=" M 42.012 55.3 L 41.99 55.3 L 42.012 55.3 C 42.027 55.3 42.041 55.3 42.056 55.3 C 42.041 55.3 42.027 55.3 42.012 55.3 Z  M 41.99 55.3 C 41.681 55.3 41.401 55.176 41.197 54.976 C 41.401 55.176 41.681 55.3 41.99 55.3 Z  M 41.197 54.975 L 41.196 54.974 L 41.196 54.974 L 41.196 54.974 L 41.196 54.974 L 41.196 54.974 L 41.197 54.975 L 41.197 54.975 Z  M 40.862 52.856 L 13.677 52.856 L 40.862 52.856 L 40.862 52.856 Z  M 13.677 52.856 L 13.671 52.856 L 13.671 52.856 L 13.665 52.856 L 13.665 52.856 L 13.66 52.856 L 13.659 52.856 L 13.654 52.856 L 13.659 52.856 L 13.66 52.856 L 13.665 52.856 L 13.665 52.856 L 13.671 52.856 L 13.671 52.856 L 13.677 52.856 L 13.677 52.856 Z  M 49.681 47.232 L 49.682 47.231 L 49.682 47.231 L 49.682 47.229 L 49.682 47.231 L 49.682 47.231 L 49.681 47.232 L 49.681 47.232 Z  M 49.826 46.851 L 49.827 46.847 L 49.827 46.847 L 49.829 46.844 L 49.827 46.847 L 49.827 46.847 L 49.826 46.851 L 49.826 46.851 Z  M 49.835 46.827 C 49.836 46.825 49.836 46.823 49.837 46.82 C 49.836 46.822 49.836 46.825 49.835 46.827 Z  M 49.941 46.508 C 49.941 46.504 49.941 46.502 49.943 46.5 C 49.941 46.502 49.941 46.504 49.941 46.508 Z  M 49.947 46.484 L 49.949 46.479 L 49.949 46.479 L 49.951 46.476 L 49.949 46.479 L 49.949 46.479 L 49.947 46.484 L 49.947 46.484 Z  M 49.955 46.459 L 49.956 46.455 L 49.956 46.455 L 49.958 46.451 L 49.956 46.455 L 49.956 46.455 L 49.955 46.459 L 49.955 46.459 Z  M 49.97 46.41 C 49.971 46.409 49.971 46.407 49.971 46.407 C 49.971 46.407 49.971 46.408 49.97 46.41 Z  M 49.988 46.347 L 49.989 46.345 L 49.99 46.343 L 49.99 46.342 L 49.991 46.34 L 49.991 46.34 L 49.991 46.338 L 49.991 46.34 L 49.991 46.34 L 49.99 46.342 L 49.99 46.343 L 49.989 46.345 L 49.988 46.347 L 49.988 46.347 Z  M 50.002 46.299 L 50.003 46.296 L 50.003 46.296 L 50.004 46.293 L 50.004 46.293 L 50.005 46.29 L 50.006 46.287 L 50.005 46.29 L 50.004 46.293 L 50.004 46.293 L 50.003 46.296 L 50.003 46.296 L 50.002 46.299 L 50.002 46.299 Z  M 50.01 46.273 L 50.01 46.271 L 50.01 46.271 L 50.011 46.268 L 50.011 46.268 L 50.012 46.265 L 50.012 46.263 L 50.012 46.265 L 50.011 46.268 L 50.011 46.268 L 50.01 46.271 L 50.01 46.271 L 50.01 46.273 L 50.01 46.273 Z  M 50.023 46.223 L 50.024 46.219 L 50.024 46.219 L 50.026 46.215 L 50.024 46.219 L 50.024 46.219 L 50.023 46.223 L 50.023 46.223 Z  M 50.04 46.161 L 50.041 46.158 L 50.041 46.158 L 50.042 46.155 L 50.042 46.155 L 50.043 46.152 L 50.043 46.15 L 50.043 46.152 L 50.042 46.155 L 50.042 46.155 L 50.041 46.158 L 50.041 46.158 L 50.04 46.161 L 50.04 46.161 Z  M 50.053 46.11 L 50.054 46.107 L 50.055 46.105 L 50.055 46.105 L 50.056 46.102 L 50.056 46.1 L 50.056 46.102 L 50.055 46.105 L 50.055 46.105 L 50.054 46.107 L 50.053 46.11 L 50.053 46.11 Z  M 50.138 45.756 L 50.139 45.753 L 50.139 45.752 L 50.139 45.749 L 50.14 45.746 L 50.14 45.743 L 50.14 45.746 L 50.139 45.749 L 50.139 45.752 L 50.139 45.753 L 50.138 45.756 L 50.138 45.756 Z  M 50.16 45.652 L 50.16 45.648 L 50.161 45.645 L 50.161 45.645 L 50.162 45.641 L 50.162 45.64 L 50.163 45.637 L 50.162 45.64 L 50.162 45.641 L 50.161 45.645 L 50.161 45.645 L 50.16 45.648 L 50.16 45.652 L 50.16 45.652 Z  M 50.187 45.511 L 50.188 45.508 L 50.188 45.508 L 50.189 45.504 L 50.189 45.501 L 50.189 45.501 L 50.19 45.497 L 50.189 45.501 L 50.189 45.501 L 50.189 45.504 L 50.188 45.508 L 50.188 45.508 L 50.187 45.511 L 50.187 45.511 Z  M 50.192 45.486 L 50.193 45.482 L 50.193 45.481 L 50.193 45.478 L 50.193 45.477 L 50.194 45.473 L 50.194 45.473 L 50.195 45.469 L 50.194 45.473 L 50.194 45.473 L 50.193 45.477 L 50.193 45.478 L 50.193 45.481 L 50.193 45.482 L 50.192 45.486 L 50.192 45.486 Z  M 50.202 45.431 L 50.203 45.425 L 50.203 45.425 L 50.204 45.419 L 50.204 45.419 L 50.205 45.414 L 50.206 45.407 L 50.205 45.414 L 50.204 45.419 L 50.204 45.419 L 50.203 45.425 L 50.203 45.425 L 50.202 45.431 L 50.202 45.431 Z  M 50.226 45.291 L 50.227 45.287 L 50.227 45.287 L 50.227 45.283 L 50.228 45.279 L 50.228 45.279 L 50.229 45.274 L 50.228 45.279 L 50.228 45.279 L 50.227 45.283 L 50.227 45.287 L 50.227 45.287 L 50.226 45.291 L 50.226 45.291 Z  M 50.234 45.236 L 50.235 45.231 L 50.236 45.225 L 50.236 45.224 L 50.237 45.219 L 50.237 45.219 L 50.239 45.213 L 50.237 45.219 L 50.237 45.219 L 50.236 45.224 L 50.236 45.225 L 50.235 45.231 L 50.234 45.236 L 50.234 45.236 Z  M 50.24 45.202 L 50.24 45.198 L 50.24 45.198 L 50.241 45.194 L 50.242 45.19 L 50.242 45.186 L 50.242 45.19 L 50.241 45.194 L 50.24 45.198 L 50.24 45.198 L 50.24 45.202 L 50.24 45.202 Z  M 50.243 45.175 L 50.244 45.171 L 50.244 45.171 L 50.245 45.167 L 50.245 45.167 L 50.245 45.163 L 50.246 45.16 L 50.245 45.163 L 50.245 45.167 L 50.245 45.167 L 50.244 45.171 L 50.244 45.171 L 50.243 45.175 L 50.243 45.175 Z  M 50.302 44.698 L 50.302 44.694 L 50.302 44.694 L 50.303 44.69 L 50.303 44.69 L 50.303 44.686 L 50.303 44.686 L 50.303 44.681 L 50.303 44.686 L 50.303 44.686 L 50.303 44.69 L 50.303 44.69 L 50.302 44.694 L 50.302 44.694 L 50.302 44.698 L 50.302 44.698 Z  M 50.317 44.526 L 50.317 44.522 L 50.317 44.518 L 50.317 44.518 L 50.317 44.514 L 50.317 44.514 L 50.317 44.51 L 50.317 44.514 L 50.317 44.514 L 50.317 44.518 L 50.317 44.518 L 50.317 44.522 L 50.317 44.526 L 50.317 44.526 Z  M 50.325 44.407 L 50.325 44.404 L 50.325 44.4 L 50.325 44.4 L 50.326 44.391 L 50.325 44.4 L 50.325 44.4 L 50.325 44.404 L 50.325 44.407 L 50.325 44.407 Z  M 50.329 44.324 L 50.329 44.321 L 50.329 44.321 L 50.329 44.317 L 50.329 44.317 L 50.33 44.313 L 50.33 44.309 L 50.33 44.313 L 50.329 44.317 L 50.329 44.317 L 50.329 44.321 L 50.329 44.321 L 50.329 44.324 L 50.329 44.324 Z  M 50.332 44.27 L 50.333 44.267 L 50.333 44.264 L 50.333 44.26 L 50.333 44.257 L 50.333 44.257 L 50.333 44.254 L 50.333 44.253 L 50.334 44.25 L 50.334 44.25 L 50.334 44.247 L 50.334 44.247 L 50.334 44.244 L 50.334 44.243 L 50.334 44.24 L 50.334 44.24 L 50.334 44.237 L 50.334 44.236 L 50.334 44.234 L 50.334 44.233 L 50.334 44.23 L 50.334 44.23 L 50.334 44.227 L 50.334 44.226 L 50.335 44.223 L 50.335 44.223 L 50.335 44.22 L 50.335 44.22 L 50.335 44.216 L 50.335 44.22 L 50.335 44.22 L 50.335 44.223 L 50.335 44.223 L 50.334 44.226 L 50.334 44.227 L 50.334 44.23 L 50.334 44.23 L 50.334 44.233 L 50.334 44.234 L 50.334 44.236 L 50.334 44.237 L 50.334 44.24 L 50.334 44.24 L 50.334 44.243 L 50.334 44.244 L 50.334 44.247 L 50.334 44.247 L 50.334 44.25 L 50.334 44.25 L 50.333 44.253 L 50.333 44.254 L 50.333 44.257 L 50.333 44.257 L 50.333 44.26 L 50.333 44.264 L 50.333 44.267 L 50.332 44.27 L 50.332 44.27 Z  M 50.338 44.151 L 50.338 44.146 L 50.338 44.142 L 50.338 44.142 L 50.338 44.138 L 50.338 44.138 L 50.338 44.134 L 50.338 44.138 L 50.338 44.138 L 50.338 44.142 L 50.338 44.142 L 50.338 44.146 L 50.338 44.151 L 50.338 44.151 Z  M 50.339 44.096 L 50.339 44.092 L 50.339 44.091 L 50.339 44.087 L 50.339 44.082 L 50.339 44.082 L 50.339 44.078 L 50.339 44.082 L 50.339 44.082 L 50.339 44.087 L 50.339 44.091 L 50.339 44.092 L 50.339 44.096 L 50.339 44.096 Z  M 50.341 43.947 L 50.341 43.943 L 50.341 43.943 L 50.341 43.939 L 50.341 43.939 L 50.341 43.935 L 50.341 43.93 L 50.341 43.935 L 50.341 43.939 L 50.341 43.939 L 50.341 43.943 L 50.341 43.943 L 50.341 43.947 L 50.341 43.947 Z  M 50.342 43.892 L 50.342 43.888 L 50.342 43.888 L 50.342 43.883 L 50.342 43.883 L 50.342 43.879 L 50.342 43.879 L 50.342 43.874 L 50.342 43.879 L 50.342 43.879 L 50.342 43.883 L 50.342 43.883 L 50.342 43.888 L 50.342 43.888 L 50.342 43.892 L 50.342 43.892 Z  M 50.342 43.864 C 50.342 43.856 50.342 43.847 50.342 43.837 C 50.342 43.847 50.342 43.856 50.342 43.864 Z  M 50.342 43.837 L 50.342 37.326 L 50.342 43.837 L 50.342 43.837 Z " fill-rule="evenodd" fill="url(#_lgradient_0)"/><path d=" M 11.562 55.3 L 11.54 55.3 C 11.525 55.3 11.51 55.3 11.496 55.3 C 10.894 55.277 10.411 54.781 10.411 54.173 L 10.411 51.457 C 10.411 50.834 10.917 50.329 11.54 50.329 L 11.562 50.329 C 12.185 50.329 12.69 50.834 12.69 51.457 L 12.69 54.173 C 12.69 54.781 12.208 55.277 11.606 55.3 C 11.592 55.3 11.577 55.3 11.562 55.3 Z " fill="rgb(245,134,52)" vector-effect="non-scaling-stroke" stroke-width="0.4" stroke="rgb(0,0,0)" stroke-opacity="100" stroke-linejoin="miter" stroke-linecap="butt" stroke-miterlimit="10"/><path d=" M 42.012 55.3 L 41.99 55.3 C 41.681 55.3 41.401 55.176 41.197 54.976 C 41.197 54.976 41.197 54.976 41.197 54.975 C 41.197 54.975 41.196 54.974 41.196 54.974 C 41.194 54.973 41.193 54.971 41.192 54.97 C 41.191 54.969 41.189 54.968 41.188 54.966 C 41.187 54.966 41.187 54.965 41.187 54.965 C 41.187 54.965 41.186 54.965 41.186 54.964 C 40.985 54.76 40.862 54.481 40.862 54.173 L 40.862 51.457 C 40.862 50.834 41.366 50.329 41.99 50.329 L 42.012 50.329 C 42.635 50.329 43.14 50.834 43.14 51.457 L 43.14 54.173 C 43.14 54.781 42.659 55.277 42.056 55.3 C 42.041 55.3 42.027 55.3 42.012 55.3 L 42.012 55.3 L 42.012 55.3 Z " fill="rgb(245,134,52)" vector-effect="non-scaling-stroke" stroke-width="0.4" stroke="rgb(0,0,0)" stroke-opacity="100" stroke-linejoin="miter" stroke-linecap="butt" stroke-miterlimit="10"/></g></g></g></g></svg>