<?xml version="1.0" standalone="no"?><!-- Generator: Gravit.io --><svg xmlns="http://www.w3.org/2000/svg" xmlns:xlink="http://www.w3.org/1999/xlink" style="isolation:isolate" viewBox="0 0 51.794 69.576" width="51.794" height="69.576"><defs><clipPath id="_clipPath_NnFwbYqbDpsFlI2j23jRpVPcmNm63S3P"><rect width="51.794" height="69.576"/></clipPath></defs><g clip-path="url(#_clipPath_NnFwbYqbDpsFlI2j23jRpVPcmNm63S3P)"><g id="_2251514384352"><path d=" M 48.05 31.946 L 7.976 31.946 C 7.976 31.946 7.401 34.318 7.509 36.905 C 7.617 39.493 7.185 41.111 5.999 43.159 C 4.813 45.208 2.001 47.153 2.872 48.766 C 3.951 50.761 5.892 49.844 6.215 51.893 C 6.538 53.942 5.029 59.441 9.665 59.872 C 12.277 60.115 15.611 60.842 16.781 63.106 C 17.952 65.371 17.752 69.576 17.752 69.576 L 39.276 69.576 C 39.276 69.576 39.464 61.232 42.335 57.068 C 45.495 52.488 51.501 44.992 48.05 31.946 Z " fill="rgb(254,254,254)" vector-effect="non-scaling-stroke" stroke-width="0.812" stroke="rgb(52,50,54)" stroke-linejoin="miter" stroke-linecap="butt" stroke-miterlimit="10"/><path d=" M 9.845 34.174 L 46.002 34.174 C 46.002 34.174 48.23 37.481 44.708 39.493 C 44.708 39.493 47.08 43.59 43.054 45.891 C 43.054 45.891 43.629 49.557 39.029 49.772 C 39.029 49.772 37.304 52.288 33.638 51.21 C 33.638 51.21 31.745 53.151 28.271 53.151 C 24.796 53.151 23.43 51.282 23.43 51.282 C 23.43 51.282 19.405 52.432 17.536 50.06 C 17.536 50.06 13.439 50.204 13.583 46.825 C 13.583 46.825 8.335 45.316 10.851 40.356 C 10.851 40.356 7.401 38.055 9.845 34.174 L 9.845 34.174 Z " fill="rgb(245,134,52)" vector-effect="non-scaling-stroke" stroke-width="0.812" stroke="rgb(52,50,54)" stroke-linejoin="miter" stroke-linecap="butt" stroke-miterlimit="10"/><path d=" M 10.923 31.946 C 10.923 31.946 11.57 30.364 13.152 29.861 C 14.733 29.358 16.674 29.717 16.602 31.946 L 13.763 31.946 C 13.763 31.946 13.441 31.315 13.979 31.019" fill="none" vector-effect="non-scaling-stroke" stroke-width="0.812" stroke="rgb(52,50,54)" stroke-linejoin="miter" stroke-linecap="butt" stroke-miterlimit="10"/><path d=" M 21.633 31.957 C 21.633 31.957 23.894 29.766 21.346 27.561 C 18.273 24.901 14.273 29.168 17.249 31.34 C 19.1 32.691 20.519 30.057 18.758 29.445" fill="none" vector-effect="non-scaling-stroke" stroke-width="0.812" stroke="rgb(52,50,54)" stroke-linejoin="miter" stroke-linecap="butt" stroke-miterlimit="10"/><path d=" M 21.346 27.561 C 21.346 27.561 22.209 25.476 24.868 25.62 C 27.528 25.764 28.57 28.352 27.834 30.149 C 27.097 31.946 24.963 31.957 24.913 30.804" fill="none" vector-effect="non-scaling-stroke" stroke-width="0.812" stroke="rgb(52,50,54)" stroke-linejoin="miter" stroke-linecap="butt" stroke-miterlimit="10"/><path d=" M 26.306 28.541 C 26.306 28.541 25.662 28.997 24.963 28.925" fill="none" vector-effect="non-scaling-stroke" stroke-width="0.812" stroke="rgb(52,50,54)" stroke-linejoin="miter" stroke-linecap="butt" stroke-miterlimit="10"/><path d=" M 24.705 27.096 C 24.705 27.096 25.1 29.086 24.913 30.804" fill="none" vector-effect="non-scaling-stroke" stroke-width="0.812" stroke="rgb(52,50,54)" stroke-linejoin="miter" stroke-linecap="butt" stroke-miterlimit="10"/><path d=" M 34.039 27.705 C 34.039 27.705 33.35 25.896 31.194 25.908 C 28.669 25.922 27.107 28.613 28.678 30.804 C 30.115 32.808 32.919 31.946 32.919 30.149 C 32.919 27.695 30.331 27.599 30.115 29.521" fill="none" vector-effect="non-scaling-stroke" stroke-width="0.812" stroke="rgb(52,50,54)" stroke-linejoin="miter" stroke-linecap="butt" stroke-miterlimit="10"/><path d=" M 34.429 31.555 C 34.429 31.555 34.278 29.846 35.794 29.661 C 36.944 29.521 37.447 30.608 37.447 30.608" fill="none" vector-effect="non-scaling-stroke" stroke-width="0.812" stroke="rgb(52,50,54)" stroke-linejoin="miter" stroke-linecap="butt" stroke-miterlimit="10"/><path d=" M 45.714 31.842 C 46.073 30.804 45.228 27.682 42.257 27.705 C 38.383 27.735 38.454 31.555 39.892 31.946" fill="none" vector-effect="non-scaling-stroke" stroke-width="0.812" stroke="rgb(52,50,54)" stroke-linejoin="miter" stroke-linecap="butt" stroke-miterlimit="10"/><path d=" M 32.632 28.932 C 32.632 28.932 33.403 27.683 35.705 27.408 C 38.387 27.086 39.217 29.327 39.217 29.327" fill="none" vector-effect="non-scaling-stroke" stroke-width="0.812" stroke="rgb(52,50,54)" stroke-linejoin="miter" stroke-linecap="butt" stroke-miterlimit="10"/><path d=" M 41.401 29.661 C 41.401 29.661 42.767 29.941 42.048 31.842" fill="none" vector-effect="non-scaling-stroke" stroke-width="0.812" stroke="rgb(52,50,54)" stroke-linejoin="miter" stroke-linecap="butt" stroke-miterlimit="10"/><path d=" M 43.27 29.521 C 43.27 29.521 43.113 30.391 42.257 30.593" fill="none" vector-effect="non-scaling-stroke" stroke-width="0.812" stroke="rgb(52,50,54)" stroke-linejoin="miter" stroke-linecap="butt" stroke-miterlimit="10"/><line x1="28.048" y1="51.282" x2="28.048" y2="14.766" vector-effect="non-scaling-stroke" stroke-width="0.812" stroke="rgb(52,50,54)" stroke-linejoin="miter" stroke-linecap="butt" stroke-miterlimit="10"/><path d=" M 28.048 15.197 C 28.048 15.197 21.105 7.074 38.98 4.415 C 38.98 4.415 37.265 18.432 28.048 15.197 Z " fill="rgb(254,254,254)" vector-effect="non-scaling-stroke" stroke-width="0.812" stroke="rgb(52,50,54)" stroke-linejoin="miter" stroke-linecap="butt" stroke-miterlimit="10"/><path d=" M 28.048 14.766 C 30.957 9.159 38.526 4.99 38.526 4.99" fill="none" vector-effect="non-scaling-stroke" stroke-width="0.812" stroke="rgb(52,50,54)" stroke-linejoin="miter" stroke-linecap="butt" stroke-miterlimit="10"/><path d=" M 25.806 21.564 C 25.806 21.564 30.59 15.967 18.273 14.135 C 18.273 14.135 19.455 23.793 25.806 21.564 Z " fill="rgb(254,254,254)" vector-effect="non-scaling-stroke" stroke-width="0.812" stroke="rgb(52,50,54)" stroke-linejoin="miter" stroke-linecap="butt" stroke-miterlimit="10"/><path d=" M 28.048 24.542 L 25.806 21.267 C 23.802 17.403 18.586 14.531 18.586 14.531" fill="none" vector-effect="non-scaling-stroke" stroke-width="0.812" stroke="rgb(52,50,54)" stroke-linejoin="miter" stroke-linecap="butt" stroke-miterlimit="10"/><path d=" M 28.063 39.349 C 28.063 39.349 28.39 41.578 30.188 42.153 C 31.985 42.728 32.396 43.765 31.84 46.322 C 31.491 47.932 31.625 49.197 31.625 49.197" fill="none" vector-effect="non-scaling-stroke" stroke-width="0.812" stroke="rgb(52,50,54)" stroke-linejoin="miter" stroke-linecap="butt" stroke-miterlimit="10"/><path d=" M 34.425 47.472 C 34.425 47.472 32.56 48.047 31.84 46.322" fill="none" vector-effect="non-scaling-stroke" stroke-width="0.812" stroke="rgb(52,50,54)" stroke-linejoin="miter" stroke-linecap="butt" stroke-miterlimit="10"/><path d=" M 30.957 42.473 C 30.957 42.473 32.278 42.369 32.85 41.075 C 33.422 39.781 35.003 40.356 35.003 40.356" fill="none" vector-effect="non-scaling-stroke" stroke-width="0.812" stroke="rgb(52,50,54)" stroke-linejoin="miter" stroke-linecap="butt" stroke-miterlimit="10"/><path d=" M 24.834 49.269 C 24.834 49.269 24.293 47.688 25.3 46.322 C 25.3 46.322 27.025 43.582 24.221 42.473 C 24.221 42.473 24.061 40.888 24.705 39.781 C 25.625 38.199 26.914 40.14 28.048 36.977" fill="none" vector-effect="non-scaling-stroke" stroke-width="0.812" stroke="rgb(52,50,54)" stroke-linejoin="miter" stroke-linecap="butt" stroke-miterlimit="10"/><path d=" M 24.221 45.172 C 24.221 45.172 23.574 43.582 24.221 42.473" fill="none" vector-effect="non-scaling-stroke" stroke-width="0.812" stroke="rgb(52,50,54)" stroke-linejoin="miter" stroke-linecap="butt" stroke-miterlimit="10"/><path d=" M 21.215 42.297 C 21.215 42.297 22.568 43.519 24.293 42.081" fill="none" vector-effect="non-scaling-stroke" stroke-width="0.812" stroke="rgb(52,50,54)" stroke-linejoin="miter" stroke-linecap="butt" stroke-miterlimit="10"/><line x1="12.361" y1="15.967" x2="12.361" y2="20.497" vector-effect="non-scaling-stroke" stroke-width="0.812" stroke="rgb(52,50,54)" stroke-linejoin="miter" stroke-linecap="butt" stroke-miterlimit="10"/><line x1="14.626" y1="18.252" x2="10.096" y2="18.211" vector-effect="non-scaling-stroke" stroke-width="0.812" stroke="rgb(52,50,54)" stroke-linejoin="miter" stroke-linecap="butt" stroke-miterlimit="10"/><line x1="36.739" y1="17.426" x2="36.739" y2="23.248" vector-effect="non-scaling-stroke" stroke-width="0.812" stroke="rgb(52,50,54)" stroke-linejoin="miter" stroke-linecap="butt" stroke-miterlimit="10"/><line x1="39.65" y1="20.363" x2="33.828" y2="20.311" vector-effect="non-scaling-stroke" stroke-width="0.812" stroke="rgb(52,50,54)" stroke-linejoin="miter" stroke-linecap="butt" stroke-miterlimit="10"/><line x1="25.347" y1="0" x2="25.347" y2="6.038" vector-effect="non-scaling-stroke" stroke-width="0.812" stroke="rgb(52,50,54)" stroke-linejoin="miter" stroke-linecap="butt" stroke-miterlimit="10"/><line x1="28.365" y1="3.046" x2="22.327" y2="2.992" vector-effect="non-scaling-stroke" stroke-width="0.812" stroke="rgb(52,50,54)" stroke-linejoin="miter" stroke-linecap="butt" stroke-miterlimit="10"/><path d=" M 16.148 24.017 C 16.148 23.62 15.827 23.298 15.43 23.298 C 15.033 23.298 14.711 23.62 14.711 24.017 C 14.711 24.414 15.033 24.736 15.43 24.736 C 15.827 24.736 16.148 24.414 16.148 24.017 Z " fill="rgb(245,134,52)" vector-effect="non-scaling-stroke" stroke-width="0.508" stroke="rgb(52,50,54)" stroke-linejoin="miter" stroke-linecap="butt" stroke-miterlimit="10"/><line x1="9.521" y1="22.515" x2="9.521" y2="23.415" vector-effect="non-scaling-stroke" stroke-width="0.499" stroke="rgb(52,50,54)" stroke-linejoin="miter" stroke-linecap="butt" stroke-miterlimit="10"/><line x1="9.521" y1="24.62" x2="9.521" y2="25.519" vector-effect="non-scaling-stroke" stroke-width="0.499" stroke="rgb(52,50,54)" stroke-linejoin="miter" stroke-linecap="butt" stroke-miterlimit="10"/><line x1="11.024" y1="24.017" x2="10.124" y2="24.017" vector-effect="non-scaling-stroke" stroke-width="0.499" stroke="rgb(52,50,54)" stroke-linejoin="miter" stroke-linecap="butt" stroke-miterlimit="10"/><line x1="8.919" y1="24.017" x2="8.019" y2="24.017" vector-effect="non-scaling-stroke" stroke-width="0.499" stroke="rgb(52,50,54)" stroke-linejoin="miter" stroke-linecap="butt" stroke-miterlimit="10"/><line x1="21.777" y1="7.576" x2="21.777" y2="8.653" vector-effect="non-scaling-stroke" stroke-width="0.406" stroke="rgb(52,50,54)" stroke-linejoin="miter" stroke-linecap="butt" stroke-miterlimit="10"/><line x1="21.777" y1="10.094" x2="21.777" y2="11.17" vector-effect="non-scaling-stroke" stroke-width="0.406" stroke="rgb(52,50,54)" stroke-linejoin="miter" stroke-linecap="butt" stroke-miterlimit="10"/><line x1="23.574" y1="9.373" x2="22.498" y2="9.373" vector-effect="non-scaling-stroke" stroke-width="0.406" stroke="rgb(52,50,54)" stroke-linejoin="miter" stroke-linecap="butt" stroke-miterlimit="10"/><line x1="21.057" y1="9.373" x2="19.98" y2="9.373" vector-effect="non-scaling-stroke" stroke-width="0.406" stroke="rgb(52,50,54)" stroke-linejoin="miter" stroke-linecap="butt" stroke-miterlimit="10"/><line x1="41.539" y1="13.688" x2="41.564" y2="14.786" vector-effect="non-scaling-stroke" stroke-width="0.406" stroke="rgb(52,50,54)" stroke-linejoin="miter" stroke-linecap="butt" stroke-miterlimit="10"/><line x1="41.597" y1="16.255" x2="41.623" y2="17.353" vector-effect="non-scaling-stroke" stroke-width="0.406" stroke="rgb(52,50,54)" stroke-linejoin="miter" stroke-linecap="butt" stroke-miterlimit="10"/><line x1="43.414" y1="15.479" x2="42.315" y2="15.504" vector-effect="non-scaling-stroke" stroke-width="0.406" stroke="rgb(52,50,54)" stroke-linejoin="miter" stroke-linecap="butt" stroke-miterlimit="10"/><line x1="40.846" y1="15.537" x2="39.748" y2="15.562" vector-effect="non-scaling-stroke" stroke-width="0.406" stroke="rgb(52,50,54)" stroke-linejoin="miter" stroke-linecap="butt" stroke-miterlimit="10"/><path d=" M 42.659 24.506 C 42.659 24.05 42.289 23.679 41.832 23.679 C 41.376 23.679 41.006 24.05 41.006 24.506 C 41.006 24.962 41.376 25.332 41.832 25.332 C 42.289 25.332 42.659 24.962 42.659 24.506 Z " fill="rgb(245,134,52)" vector-effect="non-scaling-stroke" stroke-width="0.609" stroke="rgb(52,50,54)" stroke-linejoin="miter" stroke-linecap="round" stroke-miterlimit="10"/><path d=" M 24.922 31.957 C 24.922 31.957 24.705 29.736 22.558 29.736" fill="none" vector-effect="non-scaling-stroke" stroke-width="0.812" stroke="rgb(52,50,54)" stroke-linejoin="miter" stroke-linecap="butt" stroke-miterlimit="10"/></g></g></svg>