<?xml version="1.0" standalone="no"?><!-- Generator: Gravit.io --><svg xmlns="http://www.w3.org/2000/svg" xmlns:xlink="http://www.w3.org/1999/xlink" style="isolation:isolate" viewBox="0 0 60.557 35.301" width="60.557" height="35.301"><defs><clipPath id="_clipPath_SMWceyOFrmaLFnnA40FqvQ3AkZ4eF9bI"><rect width="60.557" height="35.301"/></clipPath></defs><g clip-path="url(#_clipPath_SMWceyOFrmaLFnnA40FqvQ3AkZ4eF9bI)"><path d=" M 59.367 25.9 C 58.876 24.35 59.729 21.937 58.506 21.072 C 58.409 18.022 58.262 14.727 57.901 11.763 C 57.554 8.899 57.676 5.464 55.143 4.609 C 54.375 4.349 54.181 5.599 53.679 6.074 C 52.989 5.858 52.927 5.164 52.213 5.126 C 51.327 5.079 50.126 6.466 49.368 7.195 C 48.394 8.13 47.663 9.124 46.868 9.608 C 45.251 8.094 43.492 6.72 41.61 5.47 C 42.239 4.696 42.999 3.866 42.904 2.798 C 42.772 1.355 40.757 0.489 39.628 0.127 C 39.601 0.118 38.465 -0.084 37.904 0.04 C 35.387 0.597 33.915 2.487 31.956 3.747 L 31.008 4.609 C 30.267 5.02 29.96 6.02 28.766 5.729 C 28.583 5.849 28.044 6.232 27.715 6.442 C 28.746 6.913 29.743 7.455 30.798 7.881 C 32.051 8.39 33.387 8.654 34.219 9.82 C 35.02 10.945 33.376 12.342 32.569 11.209 C 31.847 10.194 30.081 9.951 28.995 9.424 C 27.924 8.905 26.869 8.359 25.75 7.957 C 25.498 8.115 25.349 8.346 25.242 8.75 C 26.297 9.23 27.563 9.959 28.642 10.396 C 29.898 10.904 31.233 11.168 32.063 12.334 C 32.864 13.459 31.223 14.856 30.414 13.723 C 29.691 12.708 27.926 12.465 26.84 11.939 C 25.882 11.474 24.371 10.644 23.382 10.259 C 23.165 10.447 23.14 10.663 22.979 10.959 C 23.972 11.42 25.25 12.138 26.272 12.551 C 27.526 13.059 28.861 13.323 29.693 14.49 C 30.494 15.614 28.851 17.012 28.044 15.877 C 27.321 14.863 25.554 14.621 24.47 14.094 C 23.485 13.616 22.521 13.195 21.493 12.725 C 21.092 12.548 20.822 12.327 20.607 12.581 C 20.419 12.805 20.392 12.751 20.176 13.209 C 20.665 13.41 23.097 14.468 23.686 14.706 C 24.941 15.214 26.276 15.478 27.106 16.645 C 27.907 17.769 26.266 19.166 25.459 18.033 C 24.736 17.018 23.012 16.631 21.928 16.105 C 20.936 15.622 19.911 15.262 18.881 14.871 C 18.629 15.054 18.351 15.208 18.099 15.39 C 18.691 15.68 19.286 15.968 19.899 16.216 C 21.152 16.725 22.49 16.989 23.32 18.155 C 24.121 19.28 22.478 20.677 21.67 19.543 C 20.948 18.529 19.183 18.286 18.097 17.759 C 17.438 17.439 16.786 17.11 16.119 16.809 C 15.789 16.873 15.332 16.954 15.062 17.021 C 11.259 17.752 5.571 17.834 2.734 19.607 C 2.109 19.999 1.568 20.498 1.442 21.245 C 0.845 21.596 0.218 22.013 0.063 22.71 C -0.03 23.131 -0.011 23.579 0.063 24.003 C 0.24 25.031 1.256 26.243 2.045 27.106 C 3.655 28.864 6.106 30.573 8.682 31.847 C 13.771 34.363 20.196 35.672 28.077 35.209 C 31.271 35.021 35.34 34.469 37.041 32.796 C 37.675 32.174 37.871 31.101 38.507 30.382 C 40.14 30.241 41.228 31.192 42.817 31.675 C 45.373 32.453 48.707 32.64 51.608 32.192 C 55.322 31.619 59.597 30.337 60.488 28.141 C 60.595 27.875 60.564 27.556 60.488 27.279 C 60.317 26.665 59.598 26.626 59.367 25.9 L 59.367 25.9 Z " fill-rule="evenodd" fill="rgb(254,254,254)"/></g></svg>