<?xml version="1.0" standalone="no"?><!-- Generator: Gravit.io --><svg xmlns="http://www.w3.org/2000/svg" xmlns:xlink="http://www.w3.org/1999/xlink" style="isolation:isolate" viewBox="0 0 51.386 53.204" width="51.386" height="53.204"><defs><clipPath id="_clipPath_KTyJgRCG0NmRij9jC7jhr0OTI4jmWFtV"><rect width="51.386" height="53.204"/></clipPath></defs><g clip-path="url(#_clipPath_KTyJgRCG0NmRij9jC7jhr0OTI4jmWFtV)"><g id="_2252575602256"><path d=" M 0.333 39.472 L 4.057 26.11 L 16.407 32.426 L 10.717 34.92 C 11.597 37.469 13.046 39.753 14.912 41.62 C 18.097 44.804 22.496 46.774 27.357 46.774 C 29.61 46.774 31.765 46.349 33.745 45.578 L 33.08 52.174 C 31.247 52.628 29.33 52.87 27.357 52.87 C 20.813 52.87 14.889 50.218 10.601 45.93 C 8.202 43.531 6.316 40.619 5.119 37.375 L 0.333 39.472 L 0.333 39.472 Z  M 49.721 49.755 L 44.98 45.014 C 48.754 40.816 51.053 35.263 51.053 29.175 C 51.053 22.632 48.4 16.708 44.111 12.42 C 43.379 11.687 42.599 11.003 41.777 10.371 L 36.879 14.372 C 37.935 15.053 38.915 15.845 39.801 16.731 C 42.985 19.915 44.955 24.315 44.955 29.175 C 44.955 33.581 43.336 37.609 40.662 40.695 L 37.312 37.345 L 35.92 51.146 L 49.721 49.755 L 49.721 49.755 Z  M 27.357 5.479 C 27.822 5.479 28.284 5.493 28.744 5.52 L 28.744 0.333 L 39.487 9.108 L 28.744 17.883 L 28.744 11.63 C 28.286 11.594 27.824 11.576 27.357 11.576 C 22.496 11.576 18.096 13.546 14.912 16.731 C 12.498 19.145 10.782 22.257 10.092 25.739 L 4.506 22.882 C 5.609 18.868 7.742 15.279 10.601 12.42 C 14.889 8.132 20.813 5.479 27.357 5.479 L 27.357 5.479 Z " fill-rule="evenodd" fill="rgb(245,134,52)" vector-effect="non-scaling-stroke" stroke-width="0.667" stroke="rgb(55,52,53)" stroke-linejoin="miter" stroke-linecap="butt" stroke-miterlimit="22.9256"/><path d=" M 25.692 46.696 C 26.241 46.747 26.796 46.774 27.357 46.774 C 29.61 46.774 31.765 46.349 33.745 45.578 L 33.08 52.174 C 31.247 52.628 29.33 52.87 27.357 52.87 C 26.797 52.87 26.243 52.851 25.692 52.813 L 25.692 46.696 Z  M 49.721 49.755 L 44.98 45.014 C 48.754 40.816 51.053 35.263 51.053 29.175 C 51.053 22.632 48.4 16.708 44.111 12.42 C 43.379 11.687 42.599 11.003 41.777 10.371 L 36.879 14.372 C 37.935 15.053 38.915 15.845 39.801 16.731 C 42.985 19.915 44.955 24.315 44.955 29.175 C 44.955 33.581 43.336 37.609 40.662 40.695 L 37.312 37.345 L 35.92 51.146 L 49.721 49.755 L 49.721 49.755 Z  M 27.357 5.479 C 27.822 5.479 28.284 5.493 28.744 5.52 L 28.744 0.333 L 39.487 9.108 L 28.744 17.883 L 28.744 11.63 C 28.286 11.594 27.824 11.576 27.357 11.576 C 26.796 11.576 26.241 11.602 25.692 11.654 L 25.692 5.538 C 26.243 5.499 26.797 5.479 27.357 5.479 L 27.357 5.479 Z " fill-rule="evenodd" fill="rgb(254,254,254)" vector-effect="non-scaling-stroke" stroke-width="0.667" stroke="rgb(55,52,53)" stroke-linejoin="miter" stroke-linecap="butt" stroke-miterlimit="22.9256"/></g></g></svg>