<?xml version="1.0" standalone="no"?><!-- Generator: Gravit.io --><svg xmlns="http://www.w3.org/2000/svg" xmlns:xlink="http://www.w3.org/1999/xlink" style="isolation:isolate" viewBox="0 0 50 70" width="50" height="70"><defs><clipPath id="_clipPath_IGhe4qUWvA4dJfwoRdEP2ZNWI9eZhq2K"><rect width="50" height="70"/></clipPath></defs><g clip-path="url(#_clipPath_IGhe4qUWvA4dJfwoRdEP2ZNWI9eZhq2K)"><g id="Group"><g id="_2251422379280"><path d=" M 41.183 27.404 C 41.183 27.404 46.196 44.082 40.698 43.176 C 35.199 42.27 36.593 12.675 36.593 12.675 C 32.271 19.91 36.501 38.185 30.814 35.731 C 25.127 33.278 30.724 0.388 30.724 0.388 C 30.724 0.388 28.188 14.052 23.792 24.236 C 23.204 25.594 22.78 27.117 22.461 28.717 C 22.465 23.515 20.824 16.998 19.49 12.557 C 19.565 15.347 18.902 19.531 16.424 25.69 C 12.76 34.788 14.451 41.768 16.313 45.813 C 15.951 45.505 15.557 45.136 15.135 44.701 C 6.242 35.564 10.698 13.026 10.698 13.026 C 10.698 13.026 0.236 20.579 3.922 46.059 C 7.607 71.538 24.842 65.522 24.842 65.522 C 24.842 65.522 34.606 76.908 43.54 61.688 C 52.471 46.463 41.183 27.404 41.183 27.404 L 41.183 27.404 Z " fill-rule="evenodd" fill="rgb(245,134,52)" vector-effect="non-scaling-stroke" stroke-width="0.667" stroke="rgb(55,52,53)" stroke-opacity="100" stroke-linejoin="miter" stroke-linecap="butt" stroke-miterlimit="22.9256"/><path d=" M 19.232 65.129 C 19.232 65.129 12.53 65.022 14.878 57.554 C 16.252 53.181 23.963 51.161 24.976 48.059 C 26.195 50.471 23.726 55.015 20.602 57.264 C 22.54 57.813 27.247 57.804 29.246 53.391 C 30.162 57.051 28.997 64.177 19.232 65.129 Z  M 37.326 29.486 C 30.913 32.067 36.574 40.48 33.644 41.896 C 27.646 35.398 38.574 17.741 25.248 6.414 C 27.913 17.741 2.977 27.736 3.021 50.384 C 3.049 63.617 18.337 66.383 18.337 66.383 C 61.647 65.718 33.66 33.484 37.326 29.486 Z " fill-rule="evenodd" fill="rgb(254,254,254)" vector-effect="non-scaling-stroke" stroke-width="0.667" stroke="rgb(55,52,53)" stroke-opacity="100" stroke-linejoin="miter" stroke-linecap="butt" stroke-miterlimit="22.9256"/><path d=" M 10.269 36.99 C 16.058 27.247 32.13 18.5 28.297 8.173 C 29.124 19.306 12.971 24.83 10.269 36.99 Z " fill-rule="evenodd" fill="rgb(245,134,52)"/><path d=" M 38.834 39.116 C 38.14 35.672 36.335 33.659 37.979 29.879 C 35.873 33.092 36.638 35.065 37.459 39.157 C 37.919 41.425 39.495 42.403 38.834 39.116 Z " fill-rule="evenodd" fill="rgb(245,134,52)"/></g></g></g></svg>