<?xml version="1.0" standalone="no"?><!-- Generator: Gravit.io --><svg xmlns="http://www.w3.org/2000/svg" xmlns:xlink="http://www.w3.org/1999/xlink" style="isolation:isolate" viewBox="0 0 50.882 57.461" width="50.882" height="57.461"><defs><clipPath id="_clipPath_rKiC3KSqpEbJYIclW5XYnRrN8jfdQwWk"><rect width="50.882" height="57.461"/></clipPath></defs><g clip-path="url(#_clipPath_rKiC3KSqpEbJYIclW5XYnRrN8jfdQwWk)"><g id="_2251520089344"><path d=" M 32.976 11.25 C 28.856 5.808 26.665 1.506 26.095 0.326 L 26.082 0 C 26.082 0 26.059 0.052 26.012 0.151 C 25.965 0.052 25.942 0 25.942 0 L 25.929 0.326 C 25.349 1.527 23.093 5.958 18.831 11.535 C 18.329 12.051 17.881 12.62 17.497 13.234 C 17.424 13.325 17.353 13.415 17.278 13.506 L 17.317 13.535 C 16.46 15.017 15.968 16.735 15.968 18.57 C 15.968 24.138 20.481 28.651 26.049 28.651 C 31.617 28.651 36.13 24.138 36.13 18.57 C 36.13 15.686 34.917 13.087 32.976 11.25 L 32.976 11.25 Z " fill="rgb(245,134,52)"/><path d=" M 31.034 12.737 C 31.034 12.737 34.548 22.014 27.661 24.825 C 20.211 27.866 17.54 21.592 17.54 21.592 C 17.54 21.592 18.664 27.355 25.833 27.637 C 33.002 27.917 37.781 19.484 34.689 14.564 C 31.596 9.644 26.536 2.757 26.536 2.757 L 31.034 12.737 L 31.034 12.737 Z " fill="rgb(254,254,254)"/><g id="Group"><path d=" M 17.008 40.059 C 12.887 34.617 10.697 30.315 10.127 29.135 L 10.114 28.809 C 10.114 28.809 10.091 28.862 10.044 28.961 C 9.997 28.862 9.974 28.809 9.974 28.809 L 9.961 29.135 C 9.381 30.336 7.124 34.767 2.863 40.345 C 2.361 40.86 1.913 41.43 1.529 42.043 C 1.455 42.134 1.384 42.224 1.31 42.315 L 1.349 42.344 C 0.492 43.826 0 45.545 0 47.38 C 0 52.947 4.513 57.461 10.081 57.461 C 15.648 57.461 20.162 52.947 20.162 47.38 C 20.162 44.496 18.949 41.896 17.008 40.059 L 17.008 40.059 Z " fill="rgb(245,134,52)"/></g><path d=" M 15.066 41.546 C 15.066 41.546 18.58 50.823 11.693 53.635 C 4.243 56.675 1.572 50.402 1.572 50.402 C 1.572 50.402 2.696 56.165 9.865 56.446 C 17.034 56.727 21.813 48.293 18.721 43.373 C 15.628 38.454 10.568 31.566 10.568 31.566 L 15.066 41.546 L 15.066 41.546 Z " fill="rgb(254,254,254)"/><g id="Group"><path d=" M 47.728 40.059 C 43.607 34.617 41.417 30.315 40.847 29.135 L 40.834 28.809 C 40.834 28.809 40.811 28.862 40.764 28.961 C 40.717 28.862 40.694 28.809 40.694 28.809 L 40.681 29.135 C 40.101 30.336 37.844 34.767 33.583 40.345 C 33.081 40.86 32.633 41.43 32.249 42.043 C 32.175 42.134 32.104 42.224 32.03 42.315 L 32.069 42.344 C 31.212 43.826 30.72 45.545 30.72 47.38 C 30.72 52.947 35.233 57.461 40.801 57.461 C 46.368 57.461 50.882 52.947 50.882 47.38 C 50.882 44.496 49.669 41.896 47.728 40.059 L 47.728 40.059 Z " fill="rgb(245,134,52)"/></g><path d=" M 45.786 41.546 C 45.786 41.546 49.3 50.823 42.413 53.635 C 34.963 56.675 32.292 50.402 32.292 50.402 C 32.292 50.402 33.416 56.165 40.585 56.446 C 47.754 56.727 52.533 48.293 49.441 43.373 C 46.348 38.454 41.288 31.566 41.288 31.566 L 45.786 41.546 L 45.786 41.546 Z " fill="rgb(254,254,254)"/></g></g></svg>